<?xml version="1.0" encoding="UTF-8"?>
<svg version="1.1" xmlns="http://www.w3.org/2000/svg" width="256" height="256">
<path d="M0 0 C3.74131162 1.01144296 6.39540533 3.27018575 9.33105469 5.71630859 C10.73582957 6.82755091 12.14213724 7.93685772 13.54980469 9.04443359 C14.27296875 9.62128906 14.99613281 10.19814453 15.74121094 10.79248047 C19.35810348 13.62794561 23.09320326 16.29356791 26.83105469 18.96630859 C28.35074109 20.05984301 29.87027151 21.15359422 31.38964844 22.24755859 C32.91176911 23.34132911 34.43390446 24.43507921 35.95605469 25.52880859 C45.9638416 32.72796556 55.93548114 39.97139078 65.8503418 47.2980957 C71.19441339 51.24288088 76.56520271 55.14824571 81.95605469 59.02880859 C88.33356428 63.62230584 94.68751805 68.24643703 101.01855469 72.90380859 C101.77974609 73.46261719 102.5409375 74.02142578 103.32519531 74.59716797 C107.17426585 77.43421295 110.9996996 80.30103172 114.79589844 83.20849609 C115.5099585 83.75489746 116.22401855 84.30129883 116.9597168 84.86425781 C120.9016415 88.15104302 124.32143572 91.62495168 125.95605469 96.52880859 C126.46354385 102.74555089 126.72803799 108.29670272 122.95605469 113.52880859 C118.0425856 118.67802494 113.61674188 121.27191826 106.39355469 121.77880859 C103.08340807 121.53807066 100.96410825 120.82458551 97.95605469 119.52880859 C97.95247216 120.34906918 97.95247216 120.34906918 97.94881725 121.18590069 C97.8896534 134.49837693 97.81390606 147.81067013 97.72033978 161.12295055 C97.67559253 167.5607141 97.63634582 173.99841372 97.60961914 180.4362793 C97.5836299 186.64796778 97.54325811 192.85941084 97.49286842 199.07094765 C97.47617014 201.44199893 97.46467436 203.81309268 97.45844078 206.18419456 C97.44883215 209.50269743 97.4208106 212.82056818 97.38842773 216.13891602 C97.38986282 217.12146866 97.39129791 218.1040213 97.39277649 219.11634827 C97.29827649 225.95382194 96.29848416 229.23240326 91.30938053 234.1234808 C87.80568934 236.98659682 84.9954189 237.16166478 80.4548645 237.17718506 C79.72034305 237.18639614 78.98582161 237.19560723 78.22904193 237.20509744 C75.77836203 237.22963966 73.32917599 237.21862792 70.87841797 237.20751953 C69.1171238 237.21757355 67.35584053 237.22972211 65.59457397 237.24380493 C60.8175426 237.27512088 56.04101523 237.2745371 51.26390696 237.26629925 C47.27288421 237.26213708 43.28196022 237.27311531 39.29095447 237.28394341 C29.87341412 237.30908065 20.45612471 237.30796232 11.03857422 237.29052734 C1.33053746 237.27300953 -8.37667773 237.29938689 -18.0845927 237.34749389 C-26.42622742 237.3872914 -34.76760295 237.39990088 -43.10932744 237.39077973 C-48.08850636 237.38560023 -53.06713422 237.39062253 -58.04623032 237.4217453 C-62.7301074 237.44982659 -67.41274319 237.44386206 -72.09658432 237.41202927 C-73.81221562 237.40598581 -75.52793731 237.41179536 -77.24347687 237.43053818 C-91.80163472 237.57770321 -91.80163472 237.57770321 -97.06497192 233.16168213 C-100.3268498 229.71508456 -101.16374173 226.78790272 -101.2021637 222.10591125 C-101.21195251 221.20147278 -101.22174133 220.2970343 -101.23182678 219.3651886 C-101.24045998 217.88057381 -101.24045998 217.88057381 -101.24926758 216.3659668 C-101.25916718 215.32189667 -101.26906677 214.27782654 -101.27926636 213.20211792 C-101.31090116 209.74463178 -101.33564671 206.28713188 -101.36035156 202.82958984 C-101.38091937 200.43490742 -101.4019158 198.04022864 -101.42332458 195.64555359 C-101.4785631 189.33762562 -101.52796457 183.02966479 -101.57617188 176.72167969 C-101.62637388 170.28691681 -101.68206673 163.85220174 -101.73730469 157.41748047 C-101.84490804 144.78796429 -101.9465346 132.15840729 -102.04394531 119.52880859 C-102.800625 119.85236328 -103.55730469 120.17591797 -104.33691406 120.50927734 C-109.71816817 122.53598344 -114.82780608 121.83281826 -120.04785156 119.71630859 C-124.67040717 116.96629508 -128.35077087 112.60833192 -130.04394531 107.52880859 C-130.63530367 100.28466866 -130.4998602 94.79537018 -125.77832031 88.96630859 C-120.65157749 83.37349824 -114.26384814 79.26190979 -108.07421875 74.95166016 C-104.47587099 72.42987435 -100.917114 69.85339234 -97.35644531 67.27880859 C-96.60194092 66.73401855 -95.84743652 66.18922852 -95.07006836 65.62792969 C-88.73389752 61.04539535 -82.43946785 56.40743404 -76.15063477 51.76025391 C-70.06915937 47.27111656 -63.94832055 42.83913823 -57.81347656 38.42333984 C-51.56601933 33.92037328 -45.36665821 29.35420645 -39.17358398 24.77685547 C-32.87543947 20.12743649 -26.53927879 15.53263874 -20.18066406 10.96630859 C-19.49230469 10.47130859 -18.80394531 9.97630859 -18.09472656 9.46630859 C-17.42135254 8.98806641 -16.74797852 8.50982422 -16.05419922 8.01708984 C-14.67753352 6.9978824 -13.33650435 5.92924166 -12.02978516 4.82177734 C-8.12502569 1.57399105 -5.20964331 -0.44280699 0 0 Z M-6.76269531 17.13427734 C-7.52066406 17.69888672 -8.27863281 18.26349609 -9.05957031 18.84521484 C-9.87941406 19.46267578 -10.69925781 20.08013672 -11.54394531 20.71630859 C-13.28295027 22.01265774 -15.02254726 23.30821303 -16.76269531 24.60302734 C-17.64699219 25.26222168 -18.53128906 25.92141602 -19.44238281 26.60058594 C-23.28299134 29.44716309 -27.1614075 32.23984003 -31.04394531 35.02880859 C-40.43246513 41.78763785 -49.74092626 48.65299386 -59.04394531 55.52880859 C-68.346986 62.40463932 -77.65638842 69.26861591 -87.04394531 76.02880859 C-93.56659554 80.72732168 -100.06615143 85.45611158 -106.54394531 90.21630859 C-107.36378906 90.81701172 -108.18363281 91.41771484 -109.02832031 92.03662109 C-110.16527344 92.87386719 -110.16527344 92.87386719 -111.32519531 93.72802734 C-111.99615234 94.22133545 -112.66710937 94.71464355 -113.35839844 95.22290039 C-116.48981009 97.62663854 -116.48981009 97.62663854 -117.41894531 101.40380859 C-117.27675149 104.57711387 -117.27675149 104.57711387 -115.41894531 106.96630859 C-113.13072517 108.8044544 -113.13072517 108.8044544 -110.27050781 108.40380859 C-106.34537711 107.33936637 -104.18798873 105.66188491 -101.04394531 103.09130859 C-99.89330659 102.16990449 -98.74090564 101.2506975 -97.58691406 100.33349609 C-96.70592041 99.62918457 -96.70592041 99.62918457 -95.80712891 98.91064453 C-93.05493029 96.75370128 -90.21272065 94.73228509 -87.35644531 92.71630859 C-86.17927394 91.88179735 -85.00219317 91.04715829 -83.82519531 90.21240234 C-83.21546875 89.78040527 -82.60574219 89.3484082 -81.97753906 88.90332031 C-71.28648968 81.30349606 -60.70302355 73.55606314 -50.15283203 65.76245117 C-44.05335818 61.26117177 -37.9260065 56.80021022 -31.76953125 52.37719727 C-27.86932601 49.57505378 -23.98606113 46.75323419 -20.12597656 43.89599609 C-19.31717041 43.30117432 -18.50836426 42.70635254 -17.67504883 42.09350586 C-16.13058552 40.95697216 -14.59041983 39.81456604 -13.05541992 38.6652832 C-5.48488717 33.11658031 -5.48488717 33.11658031 -1.04394531 32.52880859 C1.65338138 33.72374651 3.59778964 34.83599157 5.95605469 36.52880859 C6.96853271 37.24206299 6.96853271 37.24206299 8.00146484 37.96972656 C10.27855677 39.6079777 12.52509687 41.2823212 14.76855469 42.96630859 C16.46200188 44.22618059 18.15602594 45.4852775 19.85058594 46.74365234 C21.1298999 47.69473877 21.1298999 47.69473877 22.43505859 48.66503906 C26.25138647 51.4864459 30.10220038 54.2589974 33.95605469 57.02880859 C40.15294429 61.48853177 46.31582157 65.99140986 52.45605469 70.52880859 C60.81940868 76.70722675 69.23488751 82.81013549 77.67382812 88.88476562 C82.40572364 92.2934717 87.130455 95.71211336 91.85668945 99.12866211 C93.23407659 100.12375144 94.61307493 101.11661549 95.99389648 102.10693359 C97.31070094 103.06115397 98.61686935 104.03021295 99.91235352 105.01318359 C103.66148042 107.90908538 103.66148042 107.90908538 108.26855469 108.52880859 C111.25415285 107.71689883 111.25415285 107.71689883 112.95605469 104.52880859 C113.44567066 101.55259211 113.44567066 101.55259211 112.95605469 98.52880859 C111.4257488 96.52048829 111.4257488 96.52048829 109.08105469 94.96630859 C108.16453125 94.28697266 107.24800781 93.60763672 106.30371094 92.90771484 C105.18823903 92.11416451 104.0723174 91.32124614 102.95605469 90.52880859 C101.62046245 89.56007431 100.28588985 88.58993324 98.95214844 87.61865234 C95.90852561 85.40803183 92.85666325 83.20936654 89.79980469 81.01708984 C85.01241705 77.57808538 80.26072094 74.09231891 75.51855469 70.59130859 C74.7323877 70.0111499 73.9462207 69.43099121 73.13623047 68.83325195 C69.94351711 66.47604241 66.75206135 64.11713313 63.56054688 61.75830078 C54.32307557 54.93289869 45.06226813 48.14427985 35.74072266 41.43408203 C30.14004012 37.39726632 24.57339553 33.31593143 19.01855469 29.21630859 C18.22263916 28.62962402 17.42672363 28.04293945 16.60668945 27.43847656 C13.19431058 24.92236106 9.78475473 22.40279852 6.38574219 19.86865234 C5.39832031 19.13775391 4.41089844 18.40685547 3.39355469 17.65380859 C2.56726563 17.03763672 1.74097656 16.42146484 0.88964844 15.78662109 C-2.51188705 13.57390508 -3.77955628 14.89441563 -6.76269531 17.13427734 Z M-6.76269531 49.13427734 C-7.52066406 49.69888672 -8.27863281 50.26349609 -9.05957031 50.84521484 C-9.87941406 51.46267578 -10.69925781 52.08013672 -11.54394531 52.71630859 C-13.28295027 54.01265774 -15.02254726 55.30821303 -16.76269531 56.60302734 C-17.64699219 57.26222168 -18.53128906 57.92141602 -19.44238281 58.60058594 C-23.28298986 61.44716199 -27.16135081 64.23992093 -31.04394531 67.02880859 C-37.24096223 71.48835048 -43.4037668 75.99134198 -49.54394531 80.52880859 C-57.22489229 86.20431522 -64.94927815 91.81651346 -72.70019531 97.39599609 C-73.34172546 97.89029617 -73.98325562 98.38459625 -74.64422607 98.89387512 C-77.04394531 100.52880859 -77.04394531 100.52880859 -79.83538818 101.67411804 C-83.38197023 103.41846094 -86.04284618 105.10362855 -88.04394531 108.52880859 C-90.19122301 116.85607244 -89.34258395 125.91519321 -89.15332031 134.43115234 C-89.13533132 136.99562278 -89.12207277 139.56013038 -89.11334229 142.12464905 C-89.08447927 147.48763589 -89.02261597 152.84857188 -88.92871094 158.21069336 C-88.79614321 165.78143909 -88.73190988 173.35161049 -88.68273115 180.92329776 C-88.61012531 191.61121153 -88.50371327 202.29880257 -88.33203125 212.9855957 C-88.31834503 214.044767 -88.30465881 215.10393829 -88.29055786 216.19520569 C-88.27328644 217.15264679 -88.25601501 218.11008789 -88.23822021 219.09654236 C-88.2181724 220.35164816 -88.2181724 220.35164816 -88.19771957 221.63210964 C-88.24915987 223.53947846 -88.24915987 223.53947846 -87.04394531 224.52880859 C-85.35592546 224.62234022 -83.66399324 224.6462565 -81.97338867 224.64233398 C-80.8923436 224.64225845 -79.81129852 224.64218292 -78.69749451 224.6421051 C-77.52147171 224.63694382 -76.34544891 224.63178253 -75.13378906 224.62646484 C-73.93661758 224.6250499 -72.73944611 224.62363495 -71.5059967 224.62217712 C-67.66445465 224.61655839 -63.82296989 224.6040027 -59.98144531 224.59130859 C-57.38444094 224.58629601 -54.78743566 224.58173268 -52.19042969 224.57763672 C-45.80824853 224.56658287 -39.42610101 224.54982651 -33.04394531 224.52880859 C-33.03807907 223.54797302 -33.03221283 222.56713745 -33.02616882 221.55657959 C-32.96897127 212.31592573 -32.89622528 203.07550788 -32.8082304 193.83509445 C-32.76349094 189.08441614 -32.72424274 184.33382429 -32.69750977 179.58300781 C-32.67151241 174.99872476 -32.63113544 170.41477382 -32.58075905 165.83069611 C-32.56406615 164.08124165 -32.55256698 162.33172971 -32.54633141 160.58220673 C-32.53671652 158.13273755 -32.50868961 155.68412268 -32.47631836 153.23486328 C-32.47775345 152.51053604 -32.47918854 151.7862088 -32.48066711 151.03993225 C-32.42456245 148.04090121 -32.17138282 145.78915603 -30.845047 143.07952881 C-28.41866921 140.99045571 -26.97594202 141.0219621 -23.79394531 141.01123047 C-22.72273438 140.99862183 -21.65152344 140.98601318 -20.54785156 140.97302246 C-19.3915625 140.98111938 -18.23527344 140.98921631 -17.04394531 140.99755859 C-15.85671875 140.99373169 -14.66949219 140.98990479 -13.44628906 140.98596191 C-10.9345617 140.98323823 -8.42280618 140.99063109 -5.91113281 141.00732422 C-2.05892913 141.02872535 1.79140925 141.00753579 5.64355469 140.98193359 C8.08105882 140.98457679 10.51856179 140.98970158 12.95605469 140.99755859 C14.11234375 140.98946167 15.26863281 140.98136475 16.45996094 140.97302246 C17.53117187 140.9856311 18.60238281 140.99823975 19.70605469 141.01123047 C20.64964844 141.01441284 21.59324219 141.01759521 22.56542969 141.02087402 C24.95605469 141.52880859 24.95605469 141.52880859 26.75715637 143.07952881 C28.40387233 146.44367409 28.39569379 149.56749561 28.38842773 153.23486328 C28.40371521 154.39153755 28.40371521 154.39153755 28.41931152 155.57157898 C28.44945172 158.11468766 28.45870885 160.65741974 28.46777344 163.20068359 C28.4846194 164.96617892 28.50276953 166.73166225 28.52217102 168.49713135 C28.56968629 173.13967133 28.59948574 177.78216266 28.62561035 182.42486572 C28.65540818 187.16403818 28.70194118 191.90304297 28.74707031 196.64208984 C28.83312078 205.93757509 28.90045831 215.23309482 28.95605469 224.52880859 C36.62816671 224.55407464 44.30026809 224.57163982 51.97241211 224.58374023 C54.58472088 224.58878236 57.1970268 224.59561585 59.80932617 224.60424805 C63.55485737 224.61631895 67.3003514 224.62203795 71.04589844 224.62646484 C72.80993263 224.63420677 72.80993263 224.63420677 74.60960388 224.6421051 C75.69064896 224.64218063 76.77169403 224.64225616 77.88549805 224.64233398 C78.84258163 224.6445546 79.79966522 224.64677521 80.78575134 224.64906311 C82.93523092 224.77193358 82.93523092 224.77193358 83.95605469 223.52880859 C84.09066994 222.06657911 84.15772943 220.59806398 84.19743347 219.13018799 C84.22482101 218.17997269 84.25220856 217.22975739 84.28042603 216.25074768 C84.31745132 214.67377357 84.31745132 214.67377357 84.35522461 213.06494141 C84.38428391 211.96401657 84.4133432 210.86309174 84.44328308 209.72880554 C84.69797908 199.53321668 84.85216236 189.3358264 84.97080517 179.1378212 C85.05236669 172.28570248 85.16753994 165.4376301 85.36889648 158.58789062 C85.56351069 151.96667282 85.66209857 145.3484553 85.70278358 138.72420502 C85.73339202 136.20563983 85.7952778 133.68724363 85.88976097 131.1702652 C86.79985799 118.03065895 86.79985799 118.03065895 82.18640327 106.20486259 C77.94897166 102.18467381 73.21163821 99.29762667 68.03926754 96.63305378 C65.3950223 95.23142308 63.06667806 93.52665024 60.70996094 91.68896484 C60.00863037 91.17132568 59.3072998 90.65368652 58.5847168 90.12036133 C57.9028833 89.61577393 57.2210498 89.11118652 56.51855469 88.59130859 C55.74326416 88.01904541 54.96797363 87.44678223 54.16918945 86.85717773 C50.96529683 84.49225387 47.76297874 82.12520212 44.56054688 79.75830078 C34.42194305 72.267068 24.25281277 64.82253866 14.01855469 57.46240234 C11.48462999 55.63833179 8.96249101 53.80061897 6.45605469 51.93896484 C5.46605469 51.20548828 4.47605469 50.47201172 3.45605469 49.71630859 C2.62074219 49.09111328 1.78542969 48.46591797 0.92480469 47.82177734 C-2.49891363 45.57326393 -3.74850205 46.87109885 -6.76269531 49.13427734 Z M-20.04394531 152.52880859 C-20.04394531 176.28880859 -20.04394531 200.04880859 -20.04394531 224.52880859 C-8.16394531 224.52880859 3.71605469 224.52880859 15.95605469 224.52880859 C15.95605469 200.76880859 15.95605469 177.00880859 15.95605469 152.52880859 C4.07605469 152.52880859 -7.80394531 152.52880859 -20.04394531 152.52880859 Z " fill="#0B4B64" transform="translate(130.0439453125,9.47119140625)"/>
</svg>
