<?xml version="1.0" encoding="UTF-8"?>
<svg version="1.1" xmlns="http://www.w3.org/2000/svg" width="96" height="96">
<path d="M0 0 C0.98976837 -0.00857025 1.97953674 -0.0171405 2.9992981 -0.02597046 C5.0852758 -0.0374146 7.17133328 -0.03848887 9.25732422 -0.02978516 C12.42946155 -0.02346906 15.59785512 -0.07040599 18.76953125 -0.12109375 C20.80468284 -0.1256411 22.83984436 -0.12704609 24.875 -0.125 C25.8127829 -0.14341949 26.7505658 -0.16183899 27.71676636 -0.18081665 C34.73810459 -0.08337793 39.37462543 1.83632012 44.5703125 6.6015625 C49.17571509 11.73094722 49.18468776 17.41101663 49.171875 24.03125 C49.18044525 25.02101837 49.1890155 26.01078674 49.19784546 27.0305481 C49.2092896 29.1165258 49.21036387 31.20258328 49.20166016 33.28857422 C49.19534406 36.46071155 49.24228099 39.62910512 49.29296875 42.80078125 C49.2975161 44.83593284 49.29892109 46.87109436 49.296875 48.90625 C49.31529449 49.8440329 49.33371399 50.7818158 49.35269165 51.74801636 C49.25525293 58.76935459 47.33555488 63.40587543 42.5703125 68.6015625 C37.44092778 73.20696509 31.76085837 73.21593776 25.140625 73.203125 C24.15085663 73.21169525 23.16108826 73.2202655 22.1413269 73.22909546 C20.0553492 73.2405396 17.96929172 73.24161387 15.88330078 73.23291016 C12.71116345 73.22659406 9.54276988 73.27353099 6.37109375 73.32421875 C4.33594216 73.3287661 2.30078064 73.33017109 0.265625 73.328125 C-0.6721579 73.34654449 -1.6099408 73.36496399 -2.57614136 73.38394165 C-9.59747959 73.28650293 -14.23400043 71.36680488 -19.4296875 66.6015625 C-24.03509009 61.47217778 -24.04406276 55.79210837 -24.03125 49.171875 C-24.03982025 48.18210663 -24.0483905 47.19233826 -24.05722046 46.1725769 C-24.0686646 44.0865992 -24.06973887 42.00054172 -24.06103516 39.91455078 C-24.05471906 36.74241345 -24.10165599 33.57401988 -24.15234375 30.40234375 C-24.1568911 28.36719216 -24.15829609 26.33203064 -24.15625 24.296875 C-24.17466949 23.3590921 -24.19308899 22.4213092 -24.21206665 21.45510864 C-24.11462793 14.43377041 -22.19492988 9.79724957 -17.4296875 4.6015625 C-12.30030278 -0.00384009 -6.62023337 -0.01281276 0 0 Z M-12.8046875 14.0390625 C-16.64094828 20.08855065 -15.65151234 27.26485439 -15.66992188 34.19067383 C-15.67960984 36.39638234 -15.71064883 38.60115118 -15.7421875 40.80664062 C-15.74872042 42.22395285 -15.75396976 43.64127168 -15.7578125 45.05859375 C-15.7671582 46.33710205 -15.77650391 47.61561035 -15.78613281 48.93286133 C-15.26977304 54.24747657 -13.90216748 58.16683842 -9.9921875 61.9765625 C-3.94269935 65.81282328 3.23360439 64.82338734 10.15942383 64.84179688 C12.36513234 64.85148484 14.56990118 64.88252383 16.77539062 64.9140625 C18.19270285 64.92059542 19.61002168 64.92584476 21.02734375 64.9296875 C22.30585205 64.9390332 23.58436035 64.94837891 24.90161133 64.95800781 C30.21622657 64.44164804 34.13558842 63.07404248 37.9453125 59.1640625 C41.78157328 53.11457435 40.79213734 45.93827061 40.81054688 39.01245117 C40.82023484 36.80674266 40.85127383 34.60197382 40.8828125 32.39648438 C40.88934542 30.97917215 40.89459476 29.56185332 40.8984375 28.14453125 C40.9077832 26.86602295 40.91712891 25.58751465 40.92675781 24.27026367 C40.41039804 18.95564843 39.04279248 15.03628658 35.1328125 11.2265625 C29.08332435 7.39030172 21.90702061 8.37973766 14.98120117 8.36132812 C12.77549266 8.35164016 10.57072382 8.32060117 8.36523438 8.2890625 C6.94792215 8.28252958 5.53060332 8.27728024 4.11328125 8.2734375 C2.83477295 8.2640918 1.55626465 8.25474609 0.23901367 8.24511719 C-5.07560157 8.76147696 -8.99496342 10.12908252 -12.8046875 14.0390625 Z " fill="#FFFFFF" transform="translate(35.4296875,11.3984375)"/>
<path d="M0 0 C4.68796317 2.8950501 8.77605467 6.42344712 10.234375 11.89453125 C11.16656452 18.74158704 11.3930195 24.99387098 7.671875 31.01953125 C3.66347868 35.99068326 0.31000422 38.47580101 -6.0078125 39.3359375 C-13.1275177 39.69575056 -18.34453314 39.19135672 -23.98828125 34.640625 C-29.08369757 29.63479842 -30.03494232 26.05750776 -30.390625 19.01953125 C-30.17838344 12.13997715 -28.58962241 7.80486419 -23.765625 2.89453125 C-17.29271618 -2.6344117 -7.84970384 -3.13766411 0 0 Z M-19.765625 12.89453125 C-21.37992423 16.12312972 -21.36133157 19.40446778 -20.765625 22.89453125 C-19.02960395 25.9196127 -16.92982363 28.31243194 -13.765625 29.89453125 C-8.64192102 30.5018197 -8.64192102 30.5018197 -3.94140625 28.84765625 C-0.13809756 25.7166031 1.12100867 24.02819457 1.609375 19.14453125 C1.58496275 15.79395057 0.99038854 14.04558593 -1.140625 11.45703125 C-4.6704836 8.0112169 -6.6939902 7.49897289 -11.66015625 7.53515625 C-15.38155953 8.17034939 -17.16875349 10.23432141 -19.765625 12.89453125 Z " fill="#FFFFFF" transform="translate(57.765625,29.10546875)"/>
<path d="M0 0 C3 0.125 3 0.125 4 1.125 C4.125 4.125 4.125 4.125 4 7.125 C3 8.125 3 8.125 0 8.25 C-3 8.125 -3 8.125 -4 7.125 C-4.125 4.125 -4.125 4.125 -4 1.125 C-3 0.125 -3 0.125 0 0 Z " fill="#FFFFFF" transform="translate(68,23.875)"/>
</svg>
