<?xml version="1.0" encoding="UTF-8"?>
<svg version="1.1" xmlns="http://www.w3.org/2000/svg" width="1024" height="1024">
<path d="M0 0 C337.92 0 675.84 0 1024 0 C1024 337.92 1024 675.84 1024 1024 C686.08 1024 348.16 1024 0 1024 C0 686.08 0 348.16 0 0 Z " fill="#222C33" transform="translate(0,0)"/>
<path d="M0 0 C337.92 0 675.84 0 1024 0 C1024 337.92 1024 675.84 1024 1024 C686.08 1024 348.16 1024 0 1024 C0 686.08 0 348.16 0 0 Z M69 67 C67.63598623 69.72802753 67.87377382 71.87432925 67.8723495 74.93011361 C67.86933353 76.20476813 67.86631756 77.47942265 67.8632102 78.79270306 C67.86490947 80.22338109 67.86670022 81.65405901 67.86857224 83.08473682 C67.86692392 84.59826984 67.86483826 86.11180242 67.86235213 87.62533429 C67.85675866 91.81842956 67.85746277 96.0115045 67.85912972 100.20460231 C67.85985787 104.75353609 67.85484484 109.302464 67.8505547 113.85139531 C67.84295619 122.88885618 67.84078071 131.92631115 67.84022565 140.96377488 C67.83931384 151.78238657 67.83265177 162.60099276 67.82587883 173.41960209 C67.80979807 199.57107048 67.80391336 225.72253829 67.79913008 251.87401073 C67.79679638 264.23780391 67.793194 276.60159662 67.7894347 288.96538943 C67.77659786 331.26243199 67.76587838 373.55947428 67.7624321 415.85651875 C67.76221046 418.51302696 67.76198868 421.16953517 67.76176675 423.82604338 C67.7615461 426.48907911 67.76132562 429.15211483 67.7611053 431.81515056 C67.76071839 436.48914022 67.76032879 441.16312988 67.75993423 445.83711954 C67.75982182 447.17486221 67.7597104 448.51260489 67.75959998 449.85034756 C67.75604972 492.82393201 67.74096838 535.79749975 67.71766224 578.77107782 C67.69268735 624.84027504 67.67827808 670.90946265 67.67706418 716.97866696 C67.67689272 721.95846157 67.67667729 726.93825617 67.67642975 731.91805077 C67.67637398 733.14427513 67.67631821 734.37049949 67.67626075 735.63388216 C67.67510811 755.4029045 67.66406814 775.17190959 67.64954269 794.9409261 C67.63520628 814.79533165 67.63192451 834.64971501 67.63998267 854.50412432 C67.64445234 866.31189724 67.64052512 878.11959872 67.62474416 889.92736231 C67.61503773 897.804402 67.61613064 905.68139132 67.62618039 913.55843048 C67.63160392 918.05334058 67.63218217 922.54811292 67.61967167 927.04301194 C67.60839778 931.12747303 67.61078476 935.21168326 67.62433875 939.29613534 C67.62678602 940.76905546 67.62414238 942.2419945 67.61594227 943.71489384 C67.60557118 945.7078515 67.61537622 947.70088393 67.62625384 949.69383889 C67.62600964 950.79945002 67.62576544 951.90506115 67.62551384 953.04417564 C68.05773364 956.45569238 68.90153536 958.28872908 71 961 C74.23305379 963.32062189 77.18947147 963.25056049 81.09400356 963.251849 C82.35426201 963.25711226 83.61452047 963.26237552 84.91296858 963.26779827 C86.31698405 963.26353339 87.72099897 963.25908572 89.12501335 963.25447559 C90.61840526 963.25686424 92.11179597 963.26012864 93.60518426 963.26419219 C97.73306033 963.27285298 101.86084606 963.26896894 105.98872364 963.26313647 C110.47042877 963.25898213 114.95211692 963.26635901 119.43381798 963.27228898 C127.29661359 963.28107331 135.15938316 963.28235519 143.02218246 963.27878571 C154.71427872 963.27349176 166.40634965 963.27956078 178.09844315 963.28786864 C200.19250328 963.30313519 222.28655199 963.30481098 244.38061629 963.30234561 C261.43806288 963.30051521 278.4955057 963.30226722 295.55295181 963.30657005 C298.00082194 963.30717244 300.44869207 963.30777364 302.8965622 963.30837366 C306.58496019 963.30928088 310.27335818 963.31018954 313.96175616 963.31110601 C348.26917121 963.31953959 382.57658484 963.32386843 416.88400078 963.31969929 C418.17820527 963.31954291 419.47240976 963.31938654 420.80583257 963.31922542 C427.36584557 963.3184196 433.92585855 963.31757383 440.48587154 963.31671212 C442.44024063 963.31645549 442.44024063 963.31645549 444.43409192 963.31619367 C447.06889987 963.31584702 449.70370782 963.31549849 452.33851577 963.31514808 C493.34368698 963.30978989 534.3488367 963.31772245 575.35400391 963.33618164 C621.39045459 963.35688132 667.42689195 963.36762825 713.46334755 963.36360615 C718.36870392 963.36321079 723.27406029 963.36284925 728.17941666 963.36250877 C729.38729964 963.36241804 730.59518262 963.36232731 731.83966811 963.36223383 C750.10199904 963.36106613 768.36431656 963.36772923 786.62664413 963.37832069 C807.38758651 963.39034874 828.14849926 963.39195938 848.90944205 963.37953053 C860.53704889 963.37288168 872.16458498 963.37457943 883.79218622 963.38811904 C891.55034099 963.39632732 899.30844245 963.39371345 907.06659284 963.38214377 C911.49274369 963.37585119 915.9187559 963.37437893 920.34489904 963.38600711 C924.36811985 963.39647998 928.39108349 963.39325358 932.41429021 963.37890258 C933.86391302 963.37616448 935.31355612 963.3784976 936.76315992 963.38640973 C938.72718432 963.39640155 940.69128058 963.38615741 942.65529811 963.37489682 C944.28847664 963.37492752 944.28847664 963.37492752 945.95464867 963.37495883 C949.56878813 962.92996797 951.92754622 961.9442509 955 960 C957.4043855 956.81315106 957.2513003 953.72591393 957.25415033 949.82264006 C957.25992604 948.54374718 957.26570176 947.2648543 957.27165249 945.94720709 C957.26796545 944.52212454 957.26409523 943.09704245 957.26006222 941.67196083 C957.26305741 940.15639805 957.266927 938.64083679 957.27159455 937.12527823 C957.28192364 932.93584879 957.27970879 928.74650337 957.27553919 924.55706667 C957.27318206 920.00862961 957.28233016 915.46021367 957.29002339 910.91178453 C957.30189448 902.93183059 957.30623521 894.95189953 957.30570221 886.97193718 C957.3049105 875.10562173 957.31544297 863.23933527 957.32811778 851.37302755 C957.35288572 827.71394646 957.36164344 804.05487235 957.36665427 780.39578008 C957.36691544 779.16987252 957.36717662 777.94396495 957.36744571 776.68090868 C957.36783612 774.83845866 957.36783612 774.83845866 957.36823442 772.95878743 C957.3713137 759.36208455 957.37781733 745.76538363 957.3844471 732.1686821 C957.40409711 691.12279925 957.42050057 650.07691851 957.42332363 609.03103065 C957.42341769 607.71754898 957.42351175 606.4040673 957.42360866 605.05078315 C957.42403459 599.06045526 957.42444179 593.07012736 957.42484702 587.07979947 C957.42502862 584.40849165 957.42521351 581.73718384 957.42539909 579.06587602 C957.42549111 577.72883758 957.42558151 576.39179913 957.42567028 575.05476069 C957.42848514 532.76988422 957.45021706 490.4850554 957.48706055 448.20019531 C957.52776237 401.47815333 957.55148194 354.75614168 957.55178314 308.03408086 C957.55187997 303.05570372 957.5520467 298.07732658 957.55226326 293.09894943 C957.55230737 291.8730855 957.55235149 290.64722156 957.55239694 289.38421023 C957.55351855 269.62478089 957.57095268 249.86539791 957.59408258 230.10598352 C957.61688265 210.26075436 957.62117784 190.4155881 957.60653328 170.57035066 C957.598359 158.76939625 957.60415322 146.96863942 957.62971413 135.16770882 C957.64539763 127.29400864 957.64305845 119.42044962 957.6258074 111.546753 C957.61648232 107.05453621 957.6152038 102.56270155 957.63577347 98.07051368 C957.65431242 93.98727459 957.65002168 89.90473347 957.62718253 85.82152198 C957.62301058 84.35022596 957.62729654 82.87887665 957.64088022 81.40763742 C957.9553606 72.96959717 957.9553606 72.96959717 955.35578114 65.13560867 C949.83223263 61.62043959 944.06258162 62.18138027 937.68667603 62.25053978 C936.18498412 62.24488874 934.6833002 62.23660717 933.18163562 62.22592932 C929.03514809 62.20413796 924.88950912 62.21992797 920.74305198 62.2415974 C916.23969918 62.25856662 911.73646439 62.24084709 907.23311806 62.22746909 C899.33387709 62.20883973 891.43489027 62.21262784 883.53565216 62.23093414 C871.78949681 62.25808111 860.04353751 62.25102054 848.29736811 62.23701694 C827.32194764 62.21313108 806.34664716 62.22335804 785.37123328 62.24757349 C767.01564734 62.26862092 748.66010232 62.27772767 730.30450439 62.27498245 C728.48028967 62.27473036 728.48028967 62.27473036 726.61922212 62.27447318 C721.68287515 62.27376872 716.74652819 62.2730007 711.81018124 62.27214202 C665.47491326 62.26420652 619.1397177 62.28967311 572.80447045 62.33119515 C531.61116515 62.36793581 490.41792929 62.37956021 449.22460938 62.36865234 C446.57971899 62.36795948 443.9348286 62.36726728 441.28993821 62.36657576 C439.98237363 62.36623377 438.67480905 62.36589178 437.3276213 62.36553943 C430.7459309 62.36383242 424.16424048 62.36218484 417.58255005 62.36060143 C416.28416911 62.36028726 414.98578818 62.3599731 413.64806236 62.35964942 C379.25804647 62.35167476 344.86803728 62.36261313 310.47802544 62.37962401 C306.77894292 62.38143814 303.0798604 62.38324944 299.38077788 62.38505447 C296.92675802 62.3862567 294.47273816 62.38747393 292.01871832 62.38870629 C274.88873054 62.39715929 257.7587559 62.39830128 240.62876672 62.3944953 C218.5567693 62.38961592 196.48484232 62.39769981 174.41286421 62.42891531 C162.73170784 62.44505332 151.05066879 62.45019134 139.36950535 62.43963059 C131.57695155 62.43369784 123.78450186 62.44221179 115.99197298 62.46272775 C111.54535548 62.47403253 107.09897801 62.47891277 102.65235829 62.46639459 C98.61169596 62.45515582 94.57150116 62.46213017 90.53088608 62.48399214 C89.07386483 62.48862864 87.61680326 62.48648782 86.15980586 62.47694705 C84.1882298 62.46500494 82.21654519 62.47994128 80.24500084 62.49630201 C79.15129154 62.49702052 78.05758223 62.49773904 76.93073022 62.49847933 C73.29899194 63.11995987 71.62693893 64.46819905 69 67 Z " fill="#E8E7E4" transform="translate(0,0)"/>
<path d="M0 0 C43.56 0 87.12 0 132 0 C132 40.92 132 81.84 132 124 C131.34 124 130.68 124 130 124 C130 123.34 130 122.68 130 122 C129.40977051 121.73646729 128.81954102 121.47293457 128.21142578 121.20141602 C125.90839473 119.95023299 124.43638558 118.65195022 122.6171875 116.77734375 C121.70259766 115.84631836 121.70259766 115.84631836 120.76953125 114.89648438 C120.14433594 114.25001953 119.51914062 113.60355469 118.875 112.9375 C117.62463926 111.6527607 116.37213484 110.37010319 115.1171875 109.08984375 C114.29130127 108.23700806 114.29130127 108.23700806 113.44873047 107.36694336 C112.02585988 105.89270095 112.02585988 105.89270095 110 105 C110 104.34 110 103.68 110 103 C109.41573242 102.7417041 108.83146484 102.4834082 108.22949219 102.21728516 C105.82283378 100.90326864 104.24680663 99.47519985 102.328125 97.5234375 C101.33232422 96.51796875 101.33232422 96.51796875 100.31640625 95.4921875 C99.63449219 94.79351562 98.95257812 94.09484375 98.25 93.375 C97.20392578 92.31539062 97.20392578 92.31539062 96.13671875 91.234375 C94.41987512 89.49401297 92.70788168 87.74915019 91 86 C85.61522418 90.53816786 85.61522418 90.53816786 80.5625 95.4375 C78.30636941 97.74093314 75.99619778 99.89231558 73.53384399 101.97225952 C67.71529142 107.03606009 62.33402982 112.54264259 56.89599609 118.00634766 C55.69296779 119.21129836 54.48970922 120.41601921 53.28623962 121.62052917 C50.70886829 124.20104566 48.13305488 126.78310342 45.55845261 129.3663826 C41.48433729 133.45408799 37.40634986 137.53791586 33.32778931 141.6211853 C24.67388634 150.28615768 16.02422736 158.95536089 7.375 167.625 C-1.97113979 176.99318341 -11.31801493 186.36062609 -20.66977823 195.72319639 C-24.72135645 199.7797463 -28.77048639 203.83871936 -32.81773782 207.89958596 C-35.33702333 210.42634577 -37.85839237 212.95101863 -40.38032341 215.47513771 C-41.54619102 216.64287256 -42.71119625 217.81146917 -43.87525749 218.98100471 C-45.46876488 220.58176775 -47.06537463 222.17937392 -48.66275024 223.77627563 C-49.99943473 225.11629104 -49.99943473 225.11629104 -51.36312294 226.48337746 C-54.14569988 229.13905525 -57.03095185 231.55629781 -60 234 C-61.68985167 235.64315456 -63.35224405 237.31463479 -65 239 C-66.54678453 240.54956839 -68.09513152 242.09757778 -69.64453125 243.64453125 C-70.48564453 244.48564453 -71.32675781 245.32675781 -72.19335938 246.19335938 C-76.12890625 250.12890625 -80.06445312 254.06445312 -84 258 C-89.70123685 253.96849135 -94.65267682 249.57820388 -99.5 244.5625 C-100.73694586 243.29039884 -101.9765344 242.02086199 -103.21875 240.75390625 C-103.75435547 240.20033447 -104.28996094 239.6467627 -104.84179688 239.07641602 C-106.73786529 237.25220088 -108.67878009 235.54080161 -110.67236328 233.82543945 C-115.33571255 229.76928663 -119.6778878 225.43062935 -124.0234375 221.0390625 C-125.26451767 219.7923024 -125.26451767 219.7923024 -126.53067017 218.52035522 C-129.14790321 215.89099892 -131.76184471 213.25840857 -134.375 210.625 C-137.83830199 207.13517865 -141.30485283 203.64863242 -144.7734375 200.1640625 C-145.56922211 199.35997955 -146.36500671 198.55589661 -147.18490601 197.72744751 C-147.91972198 196.98932831 -148.65453796 196.25120911 -149.41162109 195.49072266 C-150.05811615 194.83899078 -150.70461121 194.18725891 -151.37069702 193.51577759 C-152.94112111 191.91202261 -152.94112111 191.91202261 -155 191 C-155 191.66 -155 192.32 -155 193 C-156.32980728 194.31036091 -156.32980728 194.31036091 -158.25299072 195.88508606 C-164.12982397 200.8887296 -169.50812489 206.37630121 -174.95214844 211.83862305 C-176.13872641 213.02548358 -177.32552559 214.21212299 -178.51252747 215.39855957 C-181.71487571 218.6006224 -184.9141436 221.80574662 -188.11284542 225.01145148 C-191.46838491 228.37327285 -194.82678586 231.73223326 -198.18487549 235.09150696 C-204.53901966 241.44875237 -210.89061256 247.8085404 -217.24127889 254.16925985 C-224.45866426 261.39782339 -231.67888836 268.6235486 -238.89935637 275.84903276 C-251.23922867 288.19757713 -263.57697891 300.54823836 -275.91236877 312.90126038 C-276.43253578 313.42216698 -276.95270279 313.94307358 -277.48863244 314.47976524 C-278.87259248 315.86571045 -280.2565241 317.25168406 -281.64045334 318.63766003 C-282.80842894 319.80701831 -282.80842894 319.80701831 -284 321 C-284.72230427 321.76369306 -285.44460854 322.52738611 -286.18880081 323.31422138 C-288 325 -288 325 -290 325 C-290.33 325.99 -290.66 326.98 -291 328 C-292.95597184 329.39712274 -294.95436401 330.73779907 -297 332 C-297.30237002 320.22993195 -297.53277211 308.46080013 -297.67355824 296.68762684 C-297.74116199 291.21946523 -297.83270574 285.75397665 -297.98071289 280.28735352 C-298.1228838 275.0026888 -298.19987795 269.7205794 -298.23340416 264.43414879 C-298.25726554 262.42652867 -298.30386628 260.41903504 -298.37449074 258.41251564 C-298.96005737 241.07239242 -298.96005737 241.07239242 -292.47980022 234.09720135 C-290.26527588 231.99918472 -287.98418796 230.05345326 -285.56291771 228.19847679 C-283.44395322 226.57361212 -281.48038193 224.78933498 -279.5 223 C-278.9328125 222.525625 -278.365625 222.05125 -277.78125 221.5625 C-275.93650754 219.94430486 -274.21512016 218.22832909 -272.48443604 216.48989868 C-270.8935015 214.89310959 -269.29622671 213.30286521 -267.69775391 211.71362305 C-264.38363131 208.41739817 -261.07264202 205.11804479 -257.76269531 201.81762695 C-256.34204706 200.40200841 -254.9205027 198.98728856 -253.49804688 197.57348633 C-251.42596386 195.51364569 -249.35722771 193.45049212 -247.2890625 191.38671875 C-246.66278961 190.76560715 -246.03651672 190.14449554 -245.39126587 189.50456238 C-242.43990127 186.55356686 -239.59773891 183.56826203 -236.89208984 180.38989258 C-232.00755557 174.74151485 -226.65679557 169.54641139 -221.36209106 164.28692627 C-219.3996836 162.33743245 -217.44054846 160.38470075 -215.48217773 158.43115234 C-210.62048803 153.58274085 -205.75333856 148.73982231 -200.88635254 143.89672852 C-196.76275058 139.79294582 -192.64126374 135.68706033 -188.52249146 131.57843018 C-186.60421486 129.66657521 -184.68292257 127.75778794 -182.76147461 125.84912109 C-177.43609131 120.54567769 -172.15153882 115.2692318 -167.31002808 109.51132202 C-165.42520821 107.33688789 -163.31689122 105.48317768 -161.125 103.625 C-158.11258784 101.16384776 -158.11258784 101.16384776 -156 98 C-152.51345524 99.4841373 -150.35808928 101.46214052 -147.75 104.1875 C-145.12001599 106.92786655 -142.43861978 109.50011807 -139.546875 111.95703125 C-132.55944115 118.01101057 -126.19567807 124.7508317 -119.69970703 131.32080078 C-110.96823425 140.16312325 -110.96823425 140.16312325 -101.74804688 148.48779297 C-98.69848632 151.1259184 -95.85175544 153.96406828 -93 156.8125 C-92.41605469 157.38419922 -91.83210937 157.95589844 -91.23046875 158.54492188 C-89.77984796 159.99044681 -88.38447683 161.49100467 -87 163 C-87 163.66 -87 164.32 -87 165 C-79.63410017 158.9162691 -72.96276098 152.11497715 -66.22607422 145.35644531 C-64.24429197 143.36927645 -62.25718657 141.38754247 -60.26953125 139.40625 C-58.99707486 138.13313323 -57.72492848 136.85970651 -56.453125 135.5859375 C-55.57022797 134.70607681 -55.57022797 134.70607681 -54.66949463 133.80844116 C-52.18620451 131.31103375 -49.89708435 128.86847706 -47.72167969 126.08837891 C-47.15352539 125.39921387 -46.58537109 124.71004883 -46 124 C-45.34 124 -44.68 124 -44 124 C-43.78788376 123.46223938 -43.57576752 122.92447876 -43.35722351 122.37042236 C-41.4928635 119.11427433 -38.93717223 116.68390075 -36.28442383 114.07324219 C-35.70040802 113.49054062 -35.11639221 112.90783905 -34.51467896 112.30747986 C-32.58335128 110.38264075 -30.64514601 108.46487793 -28.70703125 106.546875 C-27.35851479 105.20463335 -26.01051513 103.86187231 -24.66300964 102.51861572 C-21.11069318 98.97960606 -17.55286356 95.44619556 -13.9934082 91.91436768 C-8.31320719 86.27724666 -2.63958051 80.63353069 3.03063393 74.98636627 C5.00394826 73.02319492 6.98068706 71.06352219 8.95780945 69.10418701 C17.0577662 61.06531833 17.0577662 61.06531833 24.66111755 52.55934143 C27.76804534 48.94083016 31.3153456 45.7280926 34.7421875 42.41796875 C37.18534371 40.13785764 37.18534371 40.13785764 38 37 C32.43151428 31.33938859 26.87158308 25.76842458 20.828125 20.609375 C18.36301085 18.43923177 16.0904767 16.10263755 13.79296875 13.7578125 C11.27656585 11.29075083 8.59856715 9.03139009 5.89453125 6.7734375 C4 5 4 5 0 0 Z " fill="#268ED5" transform="translate(594,155)"/>
<path d="M0 0 C1.22355698 0.00222061 2.44711395 0.00444122 3.70774841 0.00672913 C4.71746201 0.00651009 4.71746201 0.00651009 5.74757385 0.00628662 C7.98229649 0.00698573 10.21693674 0.01477799 12.4516449 0.02259827 C13.99721226 0.02446245 15.54278022 0.02588635 17.08834839 0.02688599 C21.16380941 0.03071112 25.23923502 0.04054135 29.31468201 0.05158997 C33.47035747 0.0618042 37.62603864 0.06638363 41.78172302 0.07142639 C49.94124452 0.08216363 58.10073718 0.09923998 66.26023865 0.12025452 C66.28356395 28.65703599 66.301216 57.19381605 66.31205082 85.73060513 C66.31721456 98.9797135 66.32425875 112.22881596 66.3356781 125.47792053 C66.34562255 137.02126334 66.3520915 148.56460187 66.35432714 160.10794884 C66.35563466 166.22417706 66.35872307 172.34039304 66.3659687 178.45661736 C66.37272516 184.20615973 66.37485638 189.95568474 66.37334633 195.70523071 C66.37362283 197.82209937 66.37563016 199.93896858 66.37944412 202.05583382 C66.38437552 204.93254868 66.383239 207.80919687 66.38049316 210.68591309 C66.38340601 211.53511792 66.38631885 212.38432276 66.38931996 213.25926107 C66.37435986 219.00613331 66.37435986 219.00613331 65.26023865 220.12025452 C63.11280316 220.21451047 60.96222839 220.237681 58.81272888 220.23377991 C57.80301529 220.23399895 57.80301529 220.23399895 56.77290344 220.23422241 C54.5381808 220.2335233 52.30354055 220.22573104 50.0688324 220.21791077 C48.52326503 220.21604658 46.97769707 220.21462268 45.43212891 220.21362305 C41.35666788 220.20979792 37.28124228 220.19996769 33.20579529 220.18891907 C29.05011983 220.17870484 24.89443866 220.1741254 20.73875427 220.16908264 C12.57923278 220.15834541 4.41974011 220.14126905 -3.73976135 220.12025452 C-3.76308665 191.58347304 -3.78073871 163.04669299 -3.79157352 134.50990391 C-3.79673727 121.26079554 -3.80378145 108.01169308 -3.81520081 94.7625885 C-3.82514526 83.21924569 -3.83161421 71.67590717 -3.83384985 60.13256019 C-3.83515736 54.01633197 -3.83824577 47.90011599 -3.84549141 41.78389168 C-3.85224786 36.0343493 -3.85437908 30.28482429 -3.85286903 24.53527832 C-3.85314553 22.41840966 -3.85515287 20.30154046 -3.85896683 18.18467522 C-3.86389822 15.30796035 -3.8627617 12.43131216 -3.86001587 9.55459595 C-3.86292871 8.70539111 -3.86584155 7.85618628 -3.86884266 6.98124796 C-3.8511093 0.16903417 -3.8511093 0.16903417 0 0 Z " fill="#F1F0ED" transform="translate(659.7397613525391,312.87974548339844)"/>
<path d="M0 0 C21.45 0 42.9 0 65 0 C65.04030303 36.5727645 65.04030303 36.5727645 65.04882812 51.84960938 C65.05477138 62.41528812 65.06177379 72.98095891 65.07543945 83.54663086 C65.08538551 91.24012065 65.09185324 98.93360401 65.09408849 106.62710005 C65.09539574 110.70329652 65.09848243 114.77947461 65.10573006 118.85566521 C65.11248904 122.68787755 65.11461721 126.52006384 65.11310768 130.35228157 C65.11338406 131.76285061 65.11538991 133.17342047 65.11920547 134.58398438 C65.12414075 136.50165689 65.12239802 138.41934321 65.12025452 140.33702087 C65.12117631 141.41275329 65.1220981 142.4884857 65.12304783 143.59681606 C65 146 65 146 64 147 C42.88 147 21.76 147 0 147 C0 98.49 0 49.98 0 0 Z " fill="#F1F0ED" transform="translate(571,386)"/>
<path d="M0 0 C8.58 0 17.16 0 26 0 C31.05013427 6.31266784 35.79654864 12.43986523 40.25 19.125 C44.82107666 25.89570752 49.54217265 32.50512919 54.47949219 39.01245117 C58.21735209 43.9421369 61.87968035 48.92084923 65.5 53.9375 C65.97308594 54.59177979 66.44617188 55.24605957 66.93359375 55.92016602 C72.68369522 63.90377009 78.32574748 71.96147559 84 80 C84.33 53.6 84.66 27.2 85 0 C93.91 0 102.82 0 112 0 C112 42.24 112 84.48 112 128 C87 128 87 128 82.25 124.1875 C81.12030928 122.15002209 80.04472325 120.08232339 79 118 C76.9907518 114.9070063 74.86092448 111.8991742 72.75 108.875 C71.62266336 107.21294083 70.49636482 105.55017707 69.37109375 103.88671875 C65.83236261 98.70925316 62.09761519 93.69873696 58.30737305 88.70410156 C54.74527285 84.00793777 51.28138702 79.25382634 47.87182617 74.44604492 C43.77728924 68.67270687 39.62536231 62.94144588 35.46508789 57.21533203 C34.94293701 56.49458496 34.42078613 55.77383789 33.8828125 55.03125 C33.42277832 54.39767578 32.96274414 53.76410156 32.48876953 53.11132812 C30.60744534 50.4432908 28.81089046 47.7163357 27 45 C26.67 72.39 26.34 99.78 26 128 C17.42 128 8.84 128 0 128 C0 85.76 0 43.52 0 0 Z " fill="#F0EFEC" transform="translate(382,737)"/>
<path d="M0 0 C8.25 0 16.5 0 25 0 C32.0437676 7.74117033 32.0437676 7.74117033 33.68359375 11.37890625 C35.96762744 16.08435169 38.79273457 20.16248832 41.875 24.375 C42.88451928 25.79827009 43.89231705 27.22276272 44.8984375 28.6484375 C48.61014103 33.86838881 52.36727483 39.05528131 56.12426758 44.24267578 C59.96859096 49.55632584 63.77886348 54.89297007 67.5625 60.25 C68.05105469 60.9409375 68.53960937 61.631875 69.04296875 62.34375 C71.15389964 65.33914913 73.22900184 68.34194315 75.21484375 71.421875 C76.7446923 74.07266429 76.7446923 74.07266429 79 75 C79 50.25 79 25.5 79 0 C86.59 0 94.18 0 102 0 C102 38.61 102 77.22 102 117 C78 117 78 117 72.1875 111.5 C70.890625 109.5925293 70.890625 109.5925293 70.0625 107.88671875 C67.92664052 103.77602033 65.35694093 100.09111781 62.6875 96.3125 C61.75975297 94.95316248 60.83400611 93.59245791 59.91015625 92.23046875 C56.88742769 87.80914892 53.76769033 83.46159302 50.625 79.125 C50.08633301 78.38169434 49.54766602 77.63838867 48.99267578 76.87255859 C47.32973463 74.58077 45.66506445 72.2902463 44 70 C41.68520222 66.81416005 39.37320324 63.6263105 37.0625 60.4375 C36.28350342 59.36749756 36.28350342 59.36749756 35.48876953 58.27587891 C31.85313601 53.25858755 28.44359587 48.1653938 25 43 C24.67 67.42 24.34 91.84 24 117 C16.08 117 8.16 117 0 117 C0 78.39 0 39.78 0 0 Z " fill="#F0EFEC" transform="translate(318,586)"/>
<path d="M0 0 C4.95988926 4.22947078 4.95988926 4.22947078 6.97265625 6.6875 C6.97265625 10.6875 6.97265625 10.6875 4.77734375 13.30859375 C3.81149771 14.25841746 2.83429858 15.19679713 1.84765625 16.125 C1.34645264 16.61073486 0.84524902 17.09646973 0.32885742 17.59692383 C-2.99809429 20.79465262 -6.39664149 23.84181445 -10.02734375 26.6875 C-10.71957031 26.01654297 -10.71957031 26.01654297 -11.42578125 25.33203125 C-21.522615 15.97350352 -32.41117751 12.09500132 -46.16796875 12.3125 C-55.50569843 13.21980977 -63.9643388 17.48513841 -70.02734375 24.6875 C-76.85776736 34.81644252 -80.3647901 45.45290553 -79.02734375 57.6875 C-76.86540169 68.56155381 -71.97076314 78.45021573 -63.078125 85.37109375 C-53.02571718 91.8237822 -42.69786792 93.57722963 -30.98046875 91.0234375 C-24.17149509 88.81148278 -18.66502427 85.01876614 -13.02734375 80.6875 C-11.69475983 79.68650157 -10.3615368 78.68635269 -9.02734375 77.6875 C-8.3614624 78.36123657 -8.3614624 78.36123657 -7.68212891 79.04858398 C-5.67480772 81.07665607 -3.66363376 83.10086416 -1.65234375 85.125 C-0.95367188 85.83205078 -0.255 86.53910156 0.46484375 87.26757812 C1.13515625 87.94111328 1.80546875 88.61464844 2.49609375 89.30859375 C3.11403809 89.9317749 3.73198242 90.55495605 4.36865234 91.19702148 C5.91925692 92.77798151 5.91925692 92.77798151 7.97265625 93.6875 C3.56953725 103.56713518 -7.0069841 110.36572442 -16.73828125 114.234375 C-31.56661323 119.53329655 -49.14589536 120.017135 -64.02734375 114.6875 C-64.86910156 114.42066406 -65.71085938 114.15382813 -66.578125 113.87890625 C-81.68444014 108.59287063 -94.02460511 96.26828448 -101.3359375 82.2890625 C-109.45713928 64.99634185 -110.35325861 46.64366827 -104.02734375 28.6875 C-96.7198009 10.65646232 -83.57656019 -1.89667367 -65.91699219 -9.53027344 C-44.46950491 -18.40853561 -18.19459207 -13.89832066 0 0 Z " fill="#F0EFEC" transform="translate(624.02734375,748.3125)"/>
<path d="M0 0 C7.92 0 15.84 0 24 0 C24 15.18 24 30.36 24 46 C39.84 46 55.68 46 72 46 C72 30.82 72 15.64 72 0 C79.92 0 87.84 0 96 0 C96 38.61 96 77.22 96 117 C88.08 117 80.16 117 72 117 C72 101.16 72 85.32 72 69 C56.16 69 40.32 69 24 69 C24 84.51 24 100.02 24 116 C16.08 116 8.16 116 0 116 C0 77.72 0 39.44 0 0 Z " fill="#F0EFEC" transform="translate(773,586)"/>
<path d="M0 0 C26.07 0 52.14 0 79 0 C79 7.59 79 15.18 79 23 C60.85 23 42.7 23 24 23 C24 30.92 24 38.84 24 47 C39.84 47 55.68 47 72 47 C72 54.26 72 61.52 72 69 C56.49 69.33 40.98 69.66 25 70 C24.67 77.59 24.34 85.18 24 93 C42.15 93 60.3 93 79 93 C79 100.92 79 108.84 79 117 C52.93 117 26.86 117 0 117 C0 78.39 0 39.78 0 0 Z " fill="#F0EFEC" transform="translate(550,586)"/>
<path d="M0 0 C21.78 0 43.56 0 66 0 C66.04010881 22.17125849 66.04010881 22.17125849 66.04882812 31.58789062 C66.05481683 38.02515482 66.06191786 44.46240485 66.07543945 50.8996582 C66.08626745 56.08674843 66.09227665 61.27382349 66.09487724 66.46092415 C66.09673165 68.4445628 66.10035256 70.42820058 66.10573006 72.41183281 C66.11293932 75.18009136 66.11399099 77.94828638 66.11352539 80.71655273 C66.11712067 81.54517319 66.12071594 82.37379364 66.12442017 83.2275238 C66.11405216 88.88594784 66.11405216 88.88594784 65 90 C63.01112506 90.09930533 61.01869583 90.12799462 59.02734375 90.12939453 C57.74931885 90.13254669 56.47129395 90.13569885 55.15454102 90.13894653 C53.74886033 90.13715675 52.34317995 90.1351058 50.9375 90.1328125 C49.50642887 90.13348558 48.07535785 90.13445564 46.64428711 90.13571167 C43.64142776 90.13718844 40.6385981 90.13503476 37.63574219 90.13037109 C33.77847429 90.12467381 29.92127596 90.12795292 26.06401062 90.13394356 C23.10786409 90.13754974 20.15173417 90.13641032 17.19558716 90.13381577 C15.77295931 90.13314665 14.35032997 90.13397437 12.92770386 90.13629532 C10.94268826 90.13882274 8.95766741 90.13429042 6.97265625 90.12939453 C5.27508179 90.12820114 5.27508179 90.12820114 3.54321289 90.12698364 C1 90 1 90 0 89 C-0.09517803 86.23061034 -0.12554265 83.48622841 -0.11352539 80.71655273 C-0.11367142 79.84833893 -0.11381744 78.98012512 -0.1139679 78.08560181 C-0.11326846 75.20157414 -0.10547463 72.3176102 -0.09765625 69.43359375 C-0.09579218 67.43962133 -0.09436823 65.44564845 -0.09336853 63.45167542 C-0.08954248 58.19254298 -0.07971145 52.93343797 -0.06866455 47.67431641 C-0.05665815 41.3701255 -0.05204861 35.06592544 -0.04621124 28.76172638 C-0.03649974 19.17446515 -0.01734379 9.58726416 0 0 Z " fill="#F0EFED" transform="translate(486,443)"/>
<path d="M0 0 C4.3372372 3.16240115 8.2347899 6.82609238 12.10546875 10.53515625 C8.68784976 14.65382529 5.16052517 18.64828674 1.48046875 22.53515625 C0.74570312 23.31890625 0.0109375 24.10265625 -0.74609375 24.91015625 C-2.89453125 26.53515625 -2.89453125 26.53515625 -4.84375 26.49609375 C-7.44348054 25.2779343 -9.71192957 23.78126476 -12.08203125 22.16015625 C-21.53874399 16.08440546 -29.57721004 14.36617074 -40.89453125 15.53515625 C-44.48461184 16.47484177 -47.62244127 17.79894524 -50.89453125 19.53515625 C-51.94640625 20.07140625 -52.99828125 20.60765625 -54.08203125 21.16015625 C-61.01837414 27.01751246 -66.28082967 35.27208255 -67.05419922 44.42480469 C-67.7733956 57.27484454 -66.51715246 68.3748667 -57.89453125 78.53515625 C-50.19026782 85.84064828 -42.38460277 88.0426029 -31.96655273 87.95483398 C-22.03816989 87.59508482 -15.15012124 84.47861909 -7.96484375 77.73046875 C-5.89453125 76.53515625 -5.89453125 76.53515625 -3.5625 76.95703125 C0.04922628 79.09339643 2.90212247 81.76198513 5.91796875 84.66015625 C6.51544922 85.22347656 7.11292969 85.78679687 7.72851562 86.3671875 C9.19352469 87.75015605 10.65033187 89.1418041 12.10546875 90.53515625 C7.81088965 100.41707041 -3.38239979 105.74260384 -12.89453125 109.53515625 C-29.87714969 114.69853201 -49.20201615 112.48893217 -64.81518555 104.49023438 C-78.66201779 96.9244593 -88.02105699 83.96522382 -92.55566406 68.99658203 C-95.96105365 55.75094332 -95.27034705 41.09563153 -89.89453125 28.53515625 C-89.50523437 27.54644531 -89.1159375 26.55773437 -88.71484375 25.5390625 C-82.74698937 11.96131097 -71.52702285 1.0999644 -57.9375 -4.734375 C-39.23055828 -11.82147608 -17.26510724 -10.38578018 0 0 Z " fill="#F0EFED" transform="translate(738.89453125,592.46484375)"/>
<path d="M0 0 C27.06 0 54.12 0 82 0 C82 7.59 82 15.18 82 23 C62.86 23 43.72 23 24 23 C24 30.92 24 38.84 24 47 C40.83 47 57.66 47 75 47 C75 54.26 75 61.52 75 69 C58.17 69 41.34 69 24 69 C24 84.84 24 100.68 24 117 C16.08 117 8.16 117 0 117 C0 78.39 0 39.78 0 0 Z " fill="#F0EFEC" transform="translate(163,586)"/>
<path d="M0 0 C29.7 0 59.4 0 90 0 C90 7.92 90 15.84 90 24 C79.11 24 68.22 24 57 24 C57 54.69 57 85.38 57 117 C49.08 117 41.16 117 33 117 C33 85.98 33 54.96 33 23 C22.11 23 11.22 23 0 23 C0 15.41 0 7.82 0 0 Z " fill="#EFEEEB" transform="translate(440,586)"/>
<path d="M0 0 C7.92 0 15.84 0 24 0 C24 38.61 24 77.22 24 117 C16.08 117 8.16 117 0 117 C0 78.39 0 39.78 0 0 Z " fill="#F0EFEC" transform="translate(266,586)"/>
<path d="M0 0 C26.07 0 52.14 0 79 0 C79 7.59 79 15.18 79 23 C60.85 23 42.7 23 24 23 C24.33 22.34 24.66 21.68 25 21 C42.16 21.33 59.32 21.66 77 22 C77 15.07 77 8.14 77 1 C52.25 1 27.5 1 2 1 C2 38.62 2 76.24 2 115 C26.75 115 51.5 115 77 115 C77 108.4 77 101.8 77 95 C59.51 95 42.02 95 24 95 C24 94.67 24 94.34 24 94 C42.15 94 60.3 94 79 94 C79 101.59 79 109.18 79 117 C52.93 117 26.86 117 0 117 C0 78.39 0 39.78 0 0 Z " fill="#F9F9F9" transform="translate(550,586)"/>
<path d="M0 0 C7.92 0 15.84 0 24 0 C24 38.61 24 77.22 24 117 C16.08 117 8.16 117 0 117 C0 78.39 0 39.78 0 0 Z M2 1 C2.33 38.29 2.66 75.58 3 114 C9.27 114 15.54 114 22 114 C22.78388903 99.30226121 23.13897494 84.66255508 23.09765625 69.9453125 C23.09578368 67.93651363 23.09436376 65.92771429 23.09336853 63.91891479 C23.08960928 58.7143419 23.07983811 53.50979837 23.06866455 48.30523682 C23.05830591 42.96130775 23.05384044 37.61737378 23.04882812 32.2734375 C23.0382076 21.84894357 23.02066709 11.42447886 23 1 C16.07 1 9.14 1 2 1 Z " fill="#E1E2E1" transform="translate(266,586)"/>
<path d="M0 0 C22.11 0 44.22 0 67 0 C67 72.27 67 144.54 67 219 C65.35 219 63.7 219 62 219 C62.99 218.67 63.98 218.34 65 218 C65 146.72 65 75.44 65 2 C43.55 2 22.1 2 0 2 C0 1.34 0 0.68 0 0 Z " fill="#DDDEDE" transform="translate(659,313)"/>
<path d="M0 0 C1.60681641 -0.0309375 1.60681641 -0.0309375 3.24609375 -0.0625 C4.26832031 -0.06765625 5.29054688 -0.0728125 6.34375 -0.078125 C7.28412109 -0.0874707 8.22449219 -0.09681641 9.19335938 -0.10644531 C10.33514648 0.06999512 10.33514648 0.06999512 11.5 0.25 C13.64509782 3.46764673 13.75068436 4.3001926 13.75396729 8.00111389 C13.75960693 8.97838943 13.76524658 9.95566498 13.77105713 10.96255493 C13.76700867 12.03331268 13.76296021 13.10407043 13.75878906 14.20727539 C13.7622937 15.33591507 13.76579834 16.46455475 13.76940918 17.62739563 C13.77823014 21.3675446 13.77237634 25.10750528 13.765625 28.84765625 C13.76697145 31.43932634 13.76891181 34.03099618 13.77142334 36.62266541 C13.77437502 42.05747105 13.7702651 47.49220553 13.76074219 52.92700195 C13.74985225 59.21467313 13.75338732 65.50221467 13.764395 71.78988272 C13.77455458 77.83458952 13.77349218 83.87923275 13.76763153 89.92394829 C13.76629365 92.49846858 13.76794757 95.07299217 13.77259064 97.64750862 C13.77764646 101.23913581 13.76995902 104.83051083 13.75878906 108.42211914 C13.76283752 109.49490112 13.76688599 110.56768311 13.77105713 111.67297363 C13.76541748 112.64742935 13.75977783 113.62188507 13.75396729 114.62586975 C13.75321323 115.4755536 13.75245918 116.32523745 13.75168228 117.20066929 C13.5 119.25 13.5 119.25 11.5 121.25 C7.75080636 121.75850946 3.96724813 121.66677012 0.1875 121.6875 C-0.85857422 121.72037109 -1.90464844 121.75324219 -2.98242188 121.78710938 C-10.68399661 121.84103511 -10.68399661 121.84103511 -14.73046875 118.91015625 C-16.5 116.25 -16.5 116.25 -16.5 113.25 C-15.18 114.9 -13.86 116.55 -12.5 118.25 C-4.58 118.58 3.34 118.91 11.5 119.25 C11.5 80.64 11.5 42.03 11.5 2.25 C3.91 2.25 -3.68 2.25 -11.5 2.25 C-11.5 27 -11.5 51.75 -11.5 77.25 C-12.49 76.92 -13.48 76.59 -14.5 76.25 C-14.17 51.5 -13.84 26.75 -13.5 1.25 C-9.49006552 -0.75496724 -4.40869588 0.02122116 0 0 Z " fill="#191F23" transform="translate(408.5,583.75)"/>
<path d="M0 0 C21.45 0 42.9 0 65 0 C65.04030303 36.5727645 65.04030303 36.5727645 65.04882812 51.84960938 C65.05477138 62.41528812 65.06177379 72.98095891 65.07543945 83.54663086 C65.08538551 91.24012065 65.09185324 98.93360401 65.09408849 106.62710005 C65.09539574 110.70329652 65.09848243 114.77947461 65.10573006 118.85566521 C65.11248904 122.68787755 65.11461721 126.52006384 65.11310768 130.35228157 C65.11338406 131.76285061 65.11538991 133.17342047 65.11920547 134.58398438 C65.12414075 136.50165689 65.12239802 138.41934321 65.12025452 140.33702087 C65.12117631 141.41275329 65.1220981 142.4884857 65.12304783 143.59681606 C65 146 65 146 64 147 C42.88 147 21.76 147 0 147 C0 98.49 0 49.98 0 0 Z M1 1 C0.97088522 26.39160001 0.97088522 26.39160001 0.95117188 51.78320312 C0.94522865 62.13159681 0.93822634 72.47998238 0.92456055 82.82836914 C0.91461439 90.36364579 0.90814674 97.89891588 0.90591151 105.43419892 C0.90460428 109.42655852 0.9015177 113.41889936 0.89426994 117.41125298 C0.8875108 121.16467098 0.88538282 124.91806239 0.88689232 128.6714859 C0.88661594 130.05302894 0.88461019 131.43457281 0.88079453 132.81611061 C0.87585901 134.69437145 0.87760204 136.57264638 0.87974548 138.45091248 C0.87882369 139.50452186 0.8779019 140.55813124 0.87695217 141.64366817 C0.7342169 143.9573068 0.7342169 143.9573068 2 145 C22.46 145 42.92 145 64 145 C64 97.48 64 49.96 64 1 C43.21 1 22.42 1 1 1 Z " fill="#FDFDFD" transform="translate(571,386)"/>
<path d="M0 0 C22.44 0 44.88 0 68 0 C66 2 66 2 63.2918396 2.24050903 C62.14156281 2.23606781 60.99128601 2.23162659 59.80615234 2.22705078 C58.48671631 2.22680908 57.16728027 2.22656738 55.80786133 2.22631836 C54.40055148 2.21624631 52.99324347 2.2059131 51.5859375 2.1953125 C50.31016846 2.19329834 49.03439941 2.19128418 47.7199707 2.18920898 C42.93827741 2.17871722 38.15663523 2.15079485 33.375 2.125 C22.69125 2.08375 12.0075 2.0425 1 2 C1 39.29 1 76.58 1 115 C7.93 115 14.86 115 22 115 C21.98839844 111.77476562 21.97679687 108.54953125 21.96484375 105.2265625 C21.95705113 102.11230569 21.95097553 98.99804995 21.94506836 95.88378906 C21.94003109 93.71483883 21.93320109 91.545892 21.92456055 89.37695312 C21.91246849 86.26431437 21.90676572 83.1517204 21.90234375 80.0390625 C21.89718246 79.065065 21.89202118 78.0910675 21.88670349 77.08755493 C21.88659019 75.73638077 21.88659019 75.73638077 21.88647461 74.35791016 C21.884254 73.56293121 21.88203339 72.76795227 21.87974548 71.94888306 C22 70 22 70 23 68 C39.5 68 56 68 73 68 C73 61.73 73 55.46 73 49 C73.66 49.33 74.32 49.66 75 50 C75 56.27 75 62.54 75 69 C58.17 69 41.34 69 24 69 C24 84.84 24 100.68 24 117 C16.08 117 8.16 117 0 117 C0 78.39 0 39.78 0 0 Z " fill="#FBFBFA" transform="translate(163,586)"/>
<path d="M0 0 C43.56 0 87.12 0 132 0 C132 40.92 132 81.84 132 124 C131.34 124 130.68 124 130 124 C129.01144756 121.03434268 128.88866317 119.17214982 128.91770935 116.08357239 C128.92472838 115.07185628 128.93174742 114.06014017 128.93897915 113.017766 C128.95194562 111.90435683 128.96491209 110.79094767 128.97827148 109.64379883 C128.98806314 108.45397494 128.99785479 107.26415106 129.00794315 106.0382719 C129.04088025 102.17779871 129.08086275 98.31743462 129.12109375 94.45703125 C129.14243163 92.07727462 129.16330894 89.69751382 129.18371582 87.31774902 C129.26272126 78.48261427 129.35065688 69.64756119 129.4375 60.8125 C129.623125 41.074375 129.80875 21.33625 130 1 C87.1 1 44.2 1 0 1 C0 0.67 0 0.34 0 0 Z " fill="#3798D5" transform="translate(594,155)"/>
<path d="M0 0 C0 38.61 0 77.22 0 117 C-7.92 117 -15.84 117 -24 117 C-23.67 116.01 -23.34 115.02 -23 114 C-16.4 114 -9.8 114 -3 114 C-3 76.71 -3 39.42 -3 1 C-1 0 -1 0 0 0 Z " fill="#DDDEDD" transform="translate(869,586)"/>
<path d="M0 0 C0.66 0 1.32 0 2 0 C2.02312241 11.45650016 2.04091457 22.91299481 2.05181217 34.36951351 C2.05704122 39.68865213 2.06413927 45.00777484 2.07543945 50.3269043 C2.08626755 55.45563985 2.09227667 60.58436006 2.09487724 65.71310616 C2.09673163 67.67441614 2.10035251 69.63572524 2.10573006 71.59702873 C2.11293946 74.33415447 2.11399099 77.07121597 2.11352539 79.80834961 C2.11712067 80.62761932 2.12071594 81.44688904 2.12442017 82.29098511 C2.11405216 87.88594784 2.11405216 87.88594784 1 89 C-0.9943173 89.09405142 -2.99199543 89.11743249 -4.98852539 89.11352539 C-6.26977798 89.11344986 -7.55103058 89.11337433 -8.87110901 89.11329651 C-10.27995848 89.10818909 -11.68880756 89.10297309 -13.09765625 89.09765625 C-14.53112234 89.09579202 -15.96458907 89.09436814 -17.39805603 89.09336853 C-21.17759957 89.08954372 -24.9571049 89.07971377 -28.7366333 89.06866455 C-32.59069298 89.05844963 -36.44475882 89.05387074 -40.29882812 89.04882812 C-47.86590287 89.03809146 -55.43294609 89.02101549 -63 89 C-59.53322756 86.68881837 -58.23668119 86.75582104 -54.15161133 86.77294922 C-52.32490906 86.77331177 -52.32490906 86.77331177 -50.46130371 86.77368164 C-48.54106384 86.78902954 -48.54106384 86.78902954 -46.58203125 86.8046875 C-44.81732483 86.80770874 -44.81732483 86.80770874 -43.01696777 86.81079102 C-38.61543895 86.82126781 -34.21396562 86.84919031 -29.8125 86.875 C-15.0553125 86.936875 -15.0553125 86.936875 0 87 C0 58.29 0 29.58 0 0 Z " fill="#F6F6F5" transform="translate(550,444)"/>
<path d="M0 0 C7.59 0 15.18 0 23 0 C23 38.61 23 77.22 23 117 C15.08 117 7.16 117 -1 117 C-1 116.01 -1 115.02 -1 114 C-0.34 114.33 0.32 114.66 1 115 C2.52148326 115.08372659 4.04655778 115.10730027 5.5703125 115.09765625 C6.91416016 115.09282227 6.91416016 115.09282227 8.28515625 115.08789062 C9.22230469 115.07951172 10.15945313 115.07113281 11.125 115.0625 C12.06988281 115.05798828 13.01476562 115.05347656 13.98828125 115.04882812 C16.32558387 115.03702357 18.66276061 115.02055759 21 115 C20.814375 114.071875 20.62875 113.14375 20.4375 112.1875 C20 109 20 109 21 106 C21.08976396 104.66805546 21.12626947 103.33208175 21.12698364 101.99711609 C21.13121338 100.77967712 21.13121338 100.77967712 21.13552856 99.53764343 C21.13350433 98.65083389 21.1314801 97.76402435 21.12939453 96.8503418 C21.13114685 95.91344513 21.13289917 94.97654846 21.13470459 94.01126099 C21.13911357 90.90722818 21.13618773 87.80325216 21.1328125 84.69921875 C21.13348598 82.54311614 21.13445638 80.3870136 21.13571167 78.23091125 C21.13718749 73.70740029 21.13503841 69.18390906 21.13037109 64.66040039 C21.12468412 58.86659766 21.127947 53.07284135 21.13394356 47.27904034 C21.13756102 42.82405753 21.13640495 38.36908569 21.13381577 33.91410255 C21.13314925 31.778298 21.13396531 29.64249245 21.13629532 27.50668907 C21.1388401 24.51704661 21.13495498 21.52747872 21.12939453 18.5378418 C21.13141876 17.65710495 21.13344299 16.7763681 21.13552856 15.86894226 C21.12032017 11.44590723 20.74214523 7.37061882 20 3 C20.33 2.34 20.66 1.68 21 1 C20.01 1.33 19.02 1.66 18 2 C12.39 1.67 6.78 1.34 1 1 C1 25.75 1 50.5 1 76 C0.67 76 0.34 76 0 76 C0 50.92 0 25.84 0 0 Z " fill="#FCFCFC" transform="translate(397,586)"/>
<path d="M0 0 C7.92 0 15.84 0 24 0 C23.67 0.66 23.34 1.32 23 2 C22.10796875 1.98839844 21.2159375 1.97679687 20.296875 1.96484375 C19.12640625 1.95582031 17.9559375 1.94679688 16.75 1.9375 C15.58984375 1.92589844 14.4296875 1.91429687 13.234375 1.90234375 C10.14134904 1.86136889 10.14134904 1.86136889 7.828125 2.62890625 C6 3 6 3 2 1 C2 38.62 2 76.24 2 115 C8.93 115 15.86 115 23 115 C23 115.33 23 115.66 23 116 C15.41 116 7.82 116 0 116 C0 77.72 0 39.44 0 0 Z " fill="#FCFCFB" transform="translate(318,586)"/>
<path d="M0 0 C3.51977994 3.51977994 6.09115077 6.31051584 8.8125 10.3125 C9.41707031 11.19550781 10.02164062 12.07851563 10.64453125 12.98828125 C11.09183594 13.65214844 11.53914063 14.31601562 12 15 C11.67 15.66 11.34 16.32 11 17 C8.36 13.37 5.72 9.74 3 6 C2.67 31.41 2.34 56.82 2 83 C1.34 83 0.68 83 0 83 C0 55.61 0 28.22 0 0 Z " fill="#0E1519" transform="translate(408,781)"/>
<path d="M0 0 C17.82 0 35.64 0 54 0 C54.495 1.485 54.495 1.485 55 3 C37.84 3 20.68 3 3 3 C3 9.6 3 16.2 3 23 C2.01 23.33 1.02 23.66 0 24 C0 16.08 0 8.16 0 0 Z " fill="#384044" transform="translate(574,609)"/>
<path d="M0 0 C2.97 0.495 2.97 0.495 6 1 C1.47008204 6.43733055 -3.34294216 11.46458931 -8.375 16.4375 C-9.11105469 17.16904297 -9.84710938 17.90058594 -10.60546875 18.65429688 C-12.40136074 20.43852723 -14.19955985 22.22036124 -16 24 C-16.33 22.68 -16.66 21.36 -17 20 C-16.34 20 -15.68 20 -15 20 C-15 19.34 -15 18.68 -15 18 C-15.99 18.33 -16.98 18.66 -18 19 C-17.45388137 15.17716957 -15.76181385 13.58920048 -13 11 C-12.67 10.34 -12.34 9.68 -12 9 C-11.34 9 -10.68 9 -10 9 C-9.87625 8.21625 -9.7525 7.4325 -9.625 6.625 C-9 4 -9 4 -7 2 C-6.67 2.99 -6.34 3.98 -6 5 C-3.49552484 6.21869929 -3.49552484 6.21869929 -1 7 C0.10636395 4.60931266 0.10636395 4.60931266 1 2 C0.67 1.34 0.34 0.68 0 0 Z " fill="#2891D7" transform="translate(426,352)"/>
<path d="M0 0 C0.99 0.33 1.98 0.66 3 1 C-2.52650334 7.74080425 -8.69449559 13.8071129 -14.875 19.9375 C-15.95596274 21.01343727 -17.03669383 22.08960731 -18.1171875 23.16601562 C-20.74212641 25.78003292 -23.37018628 28.39088596 -26 31 C-26.33 30.34 -26.66 29.68 -27 29 C-26.505 27.515 -26.505 27.515 -26 26 C-23.9375 25.3125 -23.9375 25.3125 -22 25 C-22 24.34 -22 23.68 -22 23 C-21.34 23 -20.68 23 -20 23 C-20 22.34 -20 21.68 -20 21 C-19.34 21 -18.68 21 -18 21 C-18 20.34 -18 19.68 -18 19 C-17.34 19 -16.68 19 -16 19 C-15.67 18.01 -15.34 17.02 -15 16 C-14 15 -13 14 -12 13 C-12 12.34 -12 11.68 -12 11 C-10.68 11 -9.36 11 -8 11 C-8 10.01 -8 9.02 -8 8 C-6.36368108 6.95107762 -4.69514137 5.95093297 -3 5 C-2.67 4.34 -2.34 3.68 -2 3 C-1.34 3 -0.68 3 0 3 C0 2.01 0 1.02 0 0 Z " fill="#329FE5" transform="translate(380,401)"/>
<path d="M0 0 C0 3.94991499 -1.55508641 4.97981263 -4 8 C-4.433125 9.3303125 -4.433125 9.3303125 -4.875 10.6875 C-5.24625 11.450625 -5.6175 12.21375 -6 13 C-6.89332031 13.26554687 -7.78664063 13.53109375 -8.70703125 13.8046875 C-12.65007224 15.23596928 -14.98679385 17.46450052 -17.8125 20.4375 C-18.30169922 20.92798828 -18.79089844 21.41847656 -19.29492188 21.92382812 C-21.57780178 24.26354321 -22.95315729 25.85947187 -24 29 C-25.32 28.67 -26.64 28.34 -28 28 C-18.66666667 18.66666667 -9.33333333 9.33333333 0 0 Z " fill="#182837" transform="translate(538,384)"/>
<path d="M0 0 C-6.6 6.6 -13.2 13.2 -20 20 C-20.33 18.68 -20.66 17.36 -21 16 C-20.01 16 -19.02 16 -18 16 C-18 15.34 -18 14.68 -18 14 C-17.34 14 -16.68 14 -16 14 C-15.690625 13.38125 -15.38125 12.7625 -15.0625 12.125 C-14.375 10.75 -13.6875 9.375 -13 8 C-12.34 8 -11.68 8 -11 8 C-10.9175 7.4225 -10.835 6.845 -10.75 6.25 C-9.76789083 3.30367249 -8.37724934 1.96972088 -6 0 C-3.33960928 -1.01720822 -2.57437055 -1.28718528 0 0 Z " fill="#1C2328" transform="translate(574,254)"/>
<path d="M0 0 C0 0.99 0 1.98 0 3 C-0.33 3.33 -0.66 3.66 -1 4 C-1.39569108 6.01311449 -1.74252191 8.03597208 -2.0625 10.0625 C-2.32740234 11.71958984 -2.32740234 11.71958984 -2.59765625 13.41015625 C-2.73042969 14.26480469 -2.86320313 15.11945313 -3 16 C-3.66 15.01 -4.32 14.02 -5 13 C-5.928125 13.165 -6.85625 13.33 -7.8125 13.5 C-11 14 -11 14 -14 14 C-9.38 9.38 -4.76 4.76 0 0 Z " fill="#1E252B" transform="translate(617,306)"/>
<path d="M0 0 C-1.58561638 3.85593074 -4.06509954 6.33216291 -7 9.25 C-7.886875 10.14203125 -8.77375 11.0340625 -9.6875 11.953125 C-12 14 -12 14 -14 14 C-14 12.02 -14 10.04 -14 8 C-13.34 8 -12.68 8 -12 8 C-12 8.66 -12 9.32 -12 10 C-11.34 10 -10.68 10 -10 10 C-10.33 9.01 -10.66 8.02 -11 7 C-10.01 7 -9.02 7 -8 7 C-8 6.34 -8 5.68 -8 5 C-7.01 5 -6.02 5 -5 5 C-5.33 3.35 -5.66 1.7 -6 0 C-3.50907189 -1.24546405 -2.58919267 -0.7767578 0 0 Z " fill="#2D97D9" transform="translate(633,289)"/>
<path d="M0 0 C1.15957207 3.47871621 0.77456651 4.34219645 -0.4375 7.6875 C-0.72496094 8.49574219 -1.01242187 9.30398438 -1.30859375 10.13671875 C-1.53675781 10.75160156 -1.76492188 11.36648438 -2 12 C-4.97 12 -7.94 12 -11 12 C-7.47412292 7.81814579 -3.92446674 3.80904125 0 0 Z " fill="#2B98DE" transform="translate(345,348)"/>
<path d="M0 0 C4.09125955 2.21886329 7.07157732 4.86015272 10.3125 8.1875 C11.19550781 9.08855469 12.07851563 9.98960937 12.98828125 10.91796875 C13.98408203 11.94857422 13.98408203 11.94857422 15 13 C13.75 15.5 13.75 15.5 12 18 C10.68 18 9.36 18 8 18 C7.67 17.01 7.34 16.02 7 15 C7.99 14.67 8.98 14.34 10 14 C9.42541562 10.43442842 8.14644352 8.78900304 5.5625 6.3125 C4.94503906 5.71050781 4.32757812 5.10851562 3.69140625 4.48828125 C2.05606447 2.92173893 2.05606447 2.92173893 0 2 C0 1.34 0 0.68 0 0 Z " fill="#18222C" transform="translate(618,179)"/>
<path d="M0 0 C0.66 0 1.32 0 2 0 C2 0.66 2 1.32 2 2 C2.99 1.34 3.98 0.68 5 0 C5.99 0.33 6.98 0.66 8 1 C4.04 4.96 0.08 8.92 -4 13 C-4 9.88772805 -3.54372951 7.05847848 -3 4 C-2.34 4 -1.68 4 -1 4 C-0.67 2.68 -0.34 1.36 0 0 Z " fill="#2D99DE" transform="translate(659,256)"/>
<path d="M0 0 C4.28642324 1.66463038 7.08617217 4.79075837 10.25 8 C10.80429687 8.5465625 11.35859375 9.093125 11.9296875 9.65625 C16 13.7466133 16 13.7466133 16 16 C13.03 15.505 13.03 15.505 10 15 C10.33 14.01 10.66 13.02 11 12 C10.34 12 9.68 12 9 12 C8.5875 11.278125 8.175 10.55625 7.75 9.8125 C6.16899114 7.27159291 5.08943121 6.11261503 2.8125 4.3125 C1.884375 3.549375 0.95625 2.78625 0 2 C0 1.34 0 0.68 0 0 Z M11 16 C11.66 16 12.32 16 13 16 C12.67 16.99 12.34 17.98 12 19 C11.67 18.01 11.34 17.02 11 16 Z " fill="#1B232A" transform="translate(488,394)"/>
<path d="M0 0 C1.32 0.33 2.64 0.66 4 1 C4 1.66 4 2.32 4 3 C5.32 3 6.64 3 8 3 C7.67 3.99 7.34 4.98 7 6 C9.52788007 8.79872437 11.20411134 10.45773019 15 11 C15 12.65 15 14.3 15 16 C9.75715884 11.6309657 4.48058696 7.16722236 0 2 C0 1.34 0 0.68 0 0 Z " fill="#3091CE" transform="translate(464,368)"/>
<path d="M0 0 C3.46125202 1.94219077 6.20719483 3.96666141 8.98828125 6.79296875 C9.69404297 7.50517578 10.39980469 8.21738281 11.12695312 8.95117188 C11.84818359 9.68916016 12.56941406 10.42714844 13.3125 11.1875 C14.05306641 11.93708984 14.79363281 12.68667969 15.55664062 13.45898438 C17.37571712 15.30153282 19.18994389 17.14859662 21 19 C17.40771389 19 16.97553172 18.36809871 14.4375 16 C12.10102671 13.57492955 12.10102671 13.57492955 9 13 C8.814375 12.29875 8.62875 11.5975 8.4375 10.875 C6.68977555 7.3795511 4.51304151 5.69274027 1.4609375 3.33203125 C0.97882813 2.89246094 0.49671875 2.45289063 0 2 C0 1.34 0 0.68 0 0 Z " fill="#3691CB" transform="translate(485,298)"/>
<path d="M0 0 C-0.62759865 2.92879371 -1.58622659 5.36095629 -3 8 C-4.32 7.67 -5.64 7.34 -7 7 C-7.4021875 8.7015625 -7.4021875 8.7015625 -7.8125 10.4375 C-8.204375 11.613125 -8.59625 12.78875 -9 14 C-9.99 14.33 -10.98 14.66 -12 15 C-10.98103642 10.03255256 -5.83604771 0 0 0 Z " fill="#22272C" transform="translate(561,767)"/>
<path d="M0 0 C0.639375 0.639375 1.27875 1.27875 1.9375 1.9375 C2.38609375 2.38480469 2.8346875 2.83210937 3.296875 3.29296875 C4.62479431 4.62393375 5.9464563 5.96114269 7.265625 7.30078125 C8.06484375 8.10902344 8.8640625 8.91726562 9.6875 9.75 C10.83798828 10.91789063 10.83798828 10.91789063 12.01171875 12.109375 C13.8610699 14.05230615 13.8610699 14.05230615 16 15 C16 14.01 16 13.02 16 12 C16.66 12 17.32 12 18 12 C18 14.31 18 16.62 18 19 C10.84327206 14.13998705 4.98784583 8.18597308 -1 2 C-0.67 1.34 -0.34 0.68 0 0 Z " fill="#3599DB" transform="translate(606,164)"/>
<path d="M0 0 C0 3 0 3 -1.37695312 4.7175293 C-2.00537109 5.33023682 -2.63378906 5.94294434 -3.28125 6.57421875 C-3.95800781 7.24130859 -4.63476562 7.90839844 -5.33203125 8.59570312 C-6.04746094 9.28599609 -6.76289063 9.97628906 -7.5 10.6875 C-8.57314453 11.7403418 -8.57314453 11.7403418 -9.66796875 12.81445312 C-11.43879577 14.54986361 -13.21623456 16.2779073 -15 18 C-15 14.83214131 -14.44444825 13.71896141 -13 11 C-12.67 10.01 -12.34 9.02 -12 8 C-11.67 8.66 -11.34 9.32 -11 10 C-9.72799029 8.89718873 -8.45744147 7.79269231 -7.1875 6.6875 C-6.47980469 6.07261719 -5.77210938 5.45773437 -5.04296875 4.82421875 C-3.29863261 3.26665665 -1.63221959 1.67341125 0 0 Z " fill="#171D24" transform="translate(396,294)"/>
<path d="M0 0 C0.66 1.32 1.32 2.64 2 4 C2 3.34 2 2.68 2 2 C2.99 2.33 3.98 2.66 5 3 C1.37 6.63 -2.26 10.26 -6 14 C-6.66 12.68 -7.32 11.36 -8 10 C-6.68 10 -5.36 10 -4 10 C-4 9.34 -4 8.68 -4 8 C-3.34 8 -2.68 8 -2 8 C-2 6.02 -2 4.04 -2 2 C-1.34 2 -0.68 2 0 2 C0 1.34 0 0.68 0 0 Z " fill="#32A1E5" transform="translate(390,388)"/>
<path d="M0 0 C4.88049925 3.9419417 9.0580583 8.11950075 13 13 C10.00779732 11.63629701 7.70973471 10.05091917 5.25 7.875 C4.32960938 7.06675781 4.32960938 7.06675781 3.390625 6.2421875 C2.93171875 5.83226562 2.4728125 5.42234375 2 5 C1.01 5.495 1.01 5.495 0 6 C-0.33 5.34 -0.66 4.68 -1 4 C-1.99 4 -2.98 4 -4 4 C-2.68 2.68 -1.36 1.36 0 0 Z " fill="#142532" transform="translate(684,240)"/>
<path d="M0 0 C0.33 0 0.66 0 1 0 C1.144375 1.134375 1.28875 2.26875 1.4375 3.4375 C1.61171478 6.80777201 1.61171478 6.80777201 3 8 C3.16796875 9.9609375 3.16796875 9.9609375 3.1875 12.375 C3.20167969 13.16648437 3.21585938 13.95796875 3.23046875 14.7734375 C3 17 3 17 1 20 C-0.05619003 15.71702469 -0.11702092 11.57014354 -0.0625 7.1875 C-0.05798828 6.49462891 -0.05347656 5.80175781 -0.04882812 5.08789062 C-0.03713156 3.39188932 -0.01919924 1.69593297 0 0 Z " fill="#E4E5E3" transform="translate(516,792)"/>
<path d="M0 0 C7.92 0 15.84 0 24 0 C24 0.33 24 0.66 24 1 C22.06302033 1.33634376 20.12539514 1.66897165 18.1875 2 C16.56908203 2.2784375 16.56908203 2.2784375 14.91796875 2.5625 C12 3 12 3 9 3 C9 2.34 9 1.68 9 1 C6.36 1.33 3.72 1.66 1 2 C0.67 1.34 0.34 0.68 0 0 Z " fill="#2B95DC" transform="translate(595,156)"/>
<path d="M0 0 C0.66 0.33 1.32 0.66 2 1 C1.938125 2.093125 1.87625 3.18625 1.8125 4.3125 C1.64402086 7.92126083 1.64402086 7.92126083 3.5 9.9375 C3.995 10.288125 4.49 10.63875 5 11 C4.67 11.66 4.34 12.32 4 13 C1.69 10.69 -0.62 8.38 -3 6 C-2.01 5.67 -1.02 5.34 0 5 C0 4.34 0 3.68 0 3 C-0.99 3 -1.98 3 -3 3 C-2 1 -2 1 0 0 Z " fill="#3292D0" transform="translate(718,264)"/>
<path d="M0 0 C0.66 0 1.32 0 2 0 C2.04898438 0.62648438 2.09796875 1.25296875 2.1484375 1.8984375 C2.22320313 2.71570313 2.29796875 3.53296875 2.375 4.375 C2.44460938 5.18710937 2.51421875 5.99921875 2.5859375 6.8359375 C2.82892588 9.20334191 2.82892588 9.20334191 5 11 C5.75 13.4375 5.75 13.4375 6 16 C5.34 16.99 4.68 17.98 4 19 C1.56953809 12.67162748 0.40939975 6.76215448 0 0 Z " fill="#E7E7E4" transform="translate(541,799)"/>
<path d="M0 0 C2 1 4 2 6 3 C6.66 2.67 7.32 2.34 8 2 C8.99 2.99 9.98 3.98 11 5 C10.67 5.99 10.34 6.98 10 8 C6.40094092 7.44449305 5.00090201 6.25112752 2.75 3.4375 C2.22921875 2.79683594 1.7084375 2.15617188 1.171875 1.49609375 C0.78515625 1.00238281 0.3984375 0.50867188 0 0 Z " fill="#3190CE" transform="translate(597,158)"/>
<path d="M0 0 C1.0625 1.8125 1.0625 1.8125 2 4 C1.67 4.99 1.34 5.98 1 7 C-1.0625 7.6875 -1.0625 7.6875 -3 8 C-3 7.01 -3 6.02 -3 5 C-6.63 5 -10.26 5 -14 5 C-14 4.67 -14 4.34 -14 4 C-7.565 3.505 -7.565 3.505 -1 3 C-0.67 2.01 -0.34 1.02 0 0 Z " fill="#283139" transform="translate(498,700)"/>
<path d="M0 0 C0.66 0.33 1.32 0.66 2 1 C1.36191406 1.61488281 0.72382812 2.22976563 0.06640625 2.86328125 C-1.17302734 4.07564453 -1.17302734 4.07564453 -2.4375 5.3125 C-3.26121094 6.11300781 -4.08492187 6.91351563 -4.93359375 7.73828125 C-7.19403477 9.90470808 -7.19403477 9.90470808 -8 13 C-9.32 12.67 -10.64 12.34 -12 12 C-8.04 8.04 -4.08 4.08 0 0 Z " fill="#131B25" transform="translate(522,400)"/>
<path d="M0 0 C3.21043882 1.38188453 5.04936365 2.92421903 7.25 5.625 C8.03117188 6.57246094 8.03117188 6.57246094 8.828125 7.5390625 C9.40820312 8.26222656 9.40820312 8.26222656 10 9 C9.01 9.33 8.02 9.66 7 10 C7 9.34 7 8.68 7 8 C5.68 7.67 4.36 7.34 3 7 C2.87625 6.401875 2.7525 5.80375 2.625 5.1875 C2.04524015 2.73768652 2.04524015 2.73768652 0 0 Z " fill="#191F24" transform="translate(594,157)"/>
<path d="M0 0 C1.98 0.66 3.96 1.32 6 2 C6 4.31 6 6.62 6 9 C0.42857143 3.85714286 0.42857143 3.85714286 0 0 Z " fill="#1A2226" transform="translate(388,649)"/>
<path d="M0 0 C0.33 0.99 0.66 1.98 1 3 C-4.03511899 4.0070238 -7.23947038 3.97387813 -12 2 C-8.09971775 -0.60018816 -4.52565431 -0.15085514 0 0 Z " fill="#E5E4E2" transform="translate(716,584)"/>
<path d="M0 0 C0.33 1.32 0.66 2.64 1 4 C0.01 4 -0.98 4 -2 4 C-2.04125 4.61875 -2.0825 5.2375 -2.125 5.875 C-2.41375 6.57625 -2.7025 7.2775 -3 8 C-6.0625 9.25 -6.0625 9.25 -9 10 C-8.06409496 8.8944811 -7.12620142 7.79064547 -6.1875 6.6875 C-5.66542969 6.07261719 -5.14335938 5.45773437 -4.60546875 4.82421875 C-3.12827531 3.14575321 -1.59960869 1.56117966 0 0 Z " fill="#1B1E23" transform="translate(568,355)"/>
<path d="M0 0 C0 3 0 3 -1 5 C-0.34 5.33 0.32 5.66 1 6 C-3.455 7.485 -3.455 7.485 -8 9 C-2.25 2.25 -2.25 2.25 0 0 Z " fill="#1C1F24" transform="translate(577,346)"/>
<path d="M0 0 C0.66 0.33 1.32 0.66 2 1 C-0.31 3.31 -2.62 5.62 -5 8 C-5.33 7.34 -5.66 6.68 -6 6 C-6.66 6 -7.32 6 -8 6 C-7.34 4.68 -6.68 3.36 -6 2 C-5.34 2.33 -4.68 2.66 -4 3 C-2.68 2.01 -1.36 1.02 0 0 Z " fill="#3499DA" transform="translate(345,438)"/>
<path d="M0 0 C1.41377341 2.63904371 2.37240135 5.07120629 3 8 C0.03 7.505 0.03 7.505 -3 7 C-3.33 6.01 -3.66 5.02 -4 4 C-2.68 2.68 -1.36 1.36 0 0 Z " fill="#1C232A" transform="translate(324,461)"/>
<path d="M0 0 C0.33 0.66 0.66 1.32 1 2 C0.67 2.66 0.34 3.32 0 4 C-0.66 4 -1.32 4 -2 4 C-1.67 5.65 -1.34 7.3 -1 9 C-1.33 8.34 -1.66 7.68 -2 7 C-3.65 7.33 -5.3 7.66 -7 8 C-3.375 2.25 -3.375 2.25 0 0 Z " fill="#2A97DD" transform="translate(359,334)"/>
<path d="M0 0 C1.32 0 2.64 0 4 0 C5.5 2.25 5.5 2.25 7 5 C8.29579647 6.36984198 9.61992749 7.7151049 11 9 C10.67 9.66 10.34 10.32 10 11 C8.33035479 9.35718838 6.6643536 7.71067239 5 6.0625 C4.071875 5.14597656 3.14375 4.22945312 2.1875 3.28515625 C0 1 0 1 0 0 Z " fill="#3A9FDD" transform="translate(690,245)"/>
<path d="M0 0 C0.99 0 1.98 0 3 0 C2.84518205 2.70931419 2.51827919 4.46584039 0.59765625 6.4453125 C-0.89771708 7.67679642 -2.4462924 8.8429837 -4 10 C-4 9.01 -4 8.02 -4 7 C-3.34 6.67 -2.68 6.34 -2 6 C-1.67 5.01 -1.34 4.02 -1 3 C-0.34 3 0.32 3 1 3 C0.67 2.01 0.34 1.02 0 0 Z " fill="#1C252C" transform="translate(588,233)"/>
<path d="M0 0 C5.65394631 -0.34615998 9.03006806 0.56574762 14 3 C10.30581799 4.231394 7.7943739 3.64432764 4 3 C4 2.34 4 1.68 4 1 C2.68 0.67 1.36 0.34 0 0 Z " fill="#141A1D" transform="translate(586,761)"/>
<path d="M0 0 C0.99 0.33 1.98 0.66 3 1 C4.125 6.625 4.125 6.625 3 10 C2.34 10 1.68 10 1 10 C0.37542727 6.56484998 0 3.50935186 0 0 Z " fill="#E5E5E2" transform="translate(669,651)"/>
<path d="M0 0 C0.33 0.66 0.66 1.32 1 2 C0.34 2 -0.32 2 -1 2 C-1.2475 2.639375 -1.495 3.27875 -1.75 3.9375 C-3 6 -3 6 -5.125 6.75 C-6.053125 6.87375 -6.053125 6.87375 -7 7 C-7 6.01 -7 5.02 -7 4 C-4.69 2.68 -2.38 1.36 0 0 Z " fill="#E4E5E4" transform="translate(678,589)"/>
<path d="M0 0 C0.99 0.33 1.98 0.66 3 1 C1.70700306 3.88437779 0.34058637 5.87219421 -2 8 C-2.33 7.01 -2.66 6.02 -3 5 C-1.5625 2.3125 -1.5625 2.3125 0 0 Z " fill="#2A97DD" transform="translate(306,473)"/>
<path d="M0 0 C0.33 0.66 0.66 1.32 1 2 C1.33 1.34 1.66 0.68 2 0 C3.65 0 5.3 0 7 0 C5.35 1.98 3.7 3.96 2 6 C1.67 5.01 1.34 4.02 1 3 C0.34 3 -0.32 3 -1 3 C-0.67 2.01 -0.34 1.02 0 0 Z " fill="#2D97DC" transform="translate(514,401)"/>
<path d="M0 0 C0.66 0.33 1.32 0.66 2 1 C-0.64 3.64 -3.28 6.28 -6 9 C-6.33 7.68 -6.66 6.36 -7 5 C-5.35 4.34 -3.7 3.68 -2 3 C-2 2.34 -2 1.68 -2 1 C-1.34 0.67 -0.68 0.34 0 0 Z " fill="#319FE5" transform="translate(416,367)"/>
<path d="M0 0 C0.33 0.99 0.66 1.98 1 3 C-1.3125 4.5625 -1.3125 4.5625 -4 6 C-4.99 5.67 -5.98 5.34 -7 5 C-2.25 0 -2.25 0 0 0 Z " fill="#1B232A" transform="translate(595,330)"/>
<path d="M0 0 C1.32 0.33 2.64 0.66 4 1 C4 1.66 4 2.32 4 3 C4.66 3 5.32 3 6 3 C7.38232443 4.62626404 8.71937515 6.2925002 10 8 C9.67 8.66 9.34 9.32 9 10 C7.49702124 8.52386015 5.99768715 7.04400843 4.5 5.5625 C3.6646875 4.73878906 2.829375 3.91507812 1.96875 3.06640625 C0 1 0 1 0 0 Z " fill="#161D25" transform="translate(497,308)"/>
<path d="M0 0 C3.21043882 1.38188453 5.04936365 2.92421903 7.25 5.625 C8.03117188 6.57246094 8.03117188 6.57246094 8.828125 7.5390625 C9.40820312 8.26222656 9.40820312 8.26222656 10 9 C5.125 7.25 5.125 7.25 4 5 C3.01 4.67 2.02 4.34 1 4 C0.3125 1.9375 0.3125 1.9375 0 0 Z " fill="#17202C" transform="translate(605,167)"/>
<path d="M0 0 C0.33 1.32 0.66 2.64 1 4 C0.34 4 -0.32 4 -1 4 C-1.33 5.32 -1.66 6.64 -2 8 C-3.65 8 -5.3 8 -7 8 C-6.02133662 6.85373678 -5.04205413 5.70800212 -4.0625 4.5625 C-3.51722656 3.92441406 -2.97195313 3.28632813 -2.41015625 2.62890625 C-1.63204305 1.73008851 -0.84063472 0.84063472 0 0 Z " fill="#1E1F22" transform="translate(546,377)"/>
<path d="M0 0 C2.97 0.495 2.97 0.495 6 1 C4.02 3.31 2.04 5.62 0 8 C-0.33 7.01 -0.66 6.02 -1 5 C-0.34 4.01 0.32 3.02 1 2 C0.67 1.34 0.34 0.68 0 0 Z " fill="#2F9BE2" transform="translate(426,352)"/>
<path d="M0 0 C0.66 0 1.32 0 2 0 C0.4169423 4.2742558 -2.50568404 6.26531794 -6 9 C-5.67 6.69 -5.34 4.38 -5 2 C-3.68 2 -2.36 2 -1 2 C-0.67 1.34 -0.34 0.68 0 0 Z " fill="#329ADD" transform="translate(640,280)"/>
<path d="M0 0 C1.32 0.33 2.64 0.66 4 1 C2.02 3.31 0.04 5.62 -2 8 C-2.33 6.68 -2.66 5.36 -3 4 C-1.5625 2.3125 -1.5625 2.3125 0 1 C0 0.67 0 0.34 0 0 Z " fill="#1D3443" transform="translate(317,371)"/>
<path d="M0 0 C1.65 0 3.3 0 5 0 C3.60667426 3.36720387 2.0210714 4.9859524 -1 7 C-1 6.01 -1 5.02 -1 4 C-0.34 4 0.32 4 1 4 C0.67 2.68 0.34 1.36 0 0 Z " fill="#3099DF" transform="translate(433,346)"/>
<path d="M0 0 C0 0.66 0 1.32 0 2 C-3.96 3.98 -3.96 3.98 -8 6 C-7.67 4.35 -7.34 2.7 -7 1 C-2.25 0 -2.25 0 0 0 Z " fill="#E4E5E5" transform="translate(618,855)"/>
<path d="M0 0 C2.07384637 2.28176413 2.98397191 3.44323483 3.07421875 6.578125 C2.94660156 7.45984375 2.81898438 8.3415625 2.6875 9.25 C2.50767578 10.58804688 2.50767578 10.58804688 2.32421875 11.953125 C2.21722656 12.62859375 2.11023438 13.3040625 2 14 C1.67 14 1.34 14 1 14 C0.04738513 9.23692563 -0.08333357 4.8333472 0 0 Z " fill="#30383E" transform="translate(514,803)"/>
<path d="M0 0 C4.29 0.66 8.58 1.32 13 2 C10 4 10 4 6 4 C6 3.34 6 2.68 6 2 C3.03 1.505 3.03 1.505 0 1 C0 0.67 0 0.34 0 0 Z " fill="#E0E2E1" transform="translate(589,735)"/>
<path d="M0 0 C0.99 0 1.98 0 3 0 C3.33 0.99 3.66 1.98 4 3 C2.68 3.99 1.36 4.98 0 6 C-0.66 4.68 -1.32 3.36 -2 2 C-1.34 1.34 -0.68 0.68 0 0 Z " fill="#20313F" transform="translate(343,344)"/>
<path d="M0 0 C2.64 0.66 5.28 1.32 8 2 C7.01 3.32 6.02 4.64 5 6 C3.35 4.02 1.7 2.04 0 0 Z " fill="#F6F6F5" transform="translate(609,769)"/>
<path d="M0 0 C0.66 0 1.32 0 2 0 C2 1.65 2 3.3 2 5 C1.34 5 0.68 5 0 5 C0 6.32 0 7.64 0 9 C-0.66 9 -1.32 9 -2 9 C-1.34 6.03 -0.68 3.06 0 0 Z " fill="#E6E6E6" transform="translate(648,623)"/>
<path d="M0 0 C0.66 1.32 1.32 2.64 2 4 C2 3.34 2 2.68 2 2 C2.99 2.33 3.98 2.66 5 3 C3.35 4.32 1.7 5.64 0 7 C-0.66 5.35 -1.32 3.7 -2 2 C-1.34 2 -0.68 2 0 2 C0 1.34 0 0.68 0 0 Z " fill="#2C99DE" transform="translate(390,388)"/>
<path d="M0 0 C0.66 0 1.32 0 2 0 C2.33 1.32 2.66 2.64 3 4 C1.68 4.99 0.36 5.98 -1 7 C-1.04254356 5.00045254 -1.04080783 2.99958364 -1 1 C-0.67 0.67 -0.34 0.34 0 0 Z " fill="#1E313D" transform="translate(348,339)"/>
<path d="M0 0 C0 3.16880694 -0.2058242 4.43689172 -2 7 C-4.625 7.75 -4.625 7.75 -7 8 C-5.625 6 -5.625 6 -4 4 C-3.34 4 -2.68 4 -2 4 C-1.34 2.68 -0.68 1.36 0 0 Z " fill="#338DC7" transform="translate(552,275)"/>
<path d="M0 0 C0.99 0.33 1.98 0.66 3 1 C1.35 2.65 -0.3 4.3 -2 6 C-2.33 5.01 -2.66 4.02 -3 3 C-3.66 2.67 -4.32 2.34 -5 2 C-3.35 2 -1.7 2 0 2 C0 1.34 0 0.68 0 0 Z " fill="#19242C" transform="translate(550,274)"/>
<path d="M0 0 C0.66 0 1.32 0 2 0 C1.60196439 2.88575819 1.20990931 3.82189513 -1.0625 5.75 C-1.701875 6.1625 -2.34125 6.575 -3 7 C-3 5.35 -3 3.7 -3 2 C-2.34 2 -1.68 2 -1 2 C-0.67 1.34 -0.34 0.68 0 0 Z " fill="#1D3546" transform="translate(436,252)"/>
<path d="M0 0 C3.44165321 0.35299007 5.06872538 1.04581692 8 3 C4.7 2.67 1.4 2.34 -2 2 C-1.34 1.34 -0.68 0.68 0 0 Z " fill="#E6E6E5" transform="translate(564,862)"/>
<path d="M0 0 C0.66 0 1.32 0 2 0 C4.125 4.625 4.125 4.625 3 8 C0.37613513 4.93882432 0 4.26826873 0 0 Z " fill="#E9E9E8" transform="translate(423,798)"/>
<path d="M0 0 C1 2 1 2 0.25 4.5625 C-1 7 -1 7 -4 8 C-2.25 2.25 -2.25 2.25 0 0 Z " fill="#12171C" transform="translate(553,774)"/>
<path d="M0 0 C0.66 0 1.32 0 2 0 C2 0.66 2 1.32 2 2 C2.66 2.33 3.32 2.66 4 3 C2.35 4.32 0.7 5.64 -1 7 C-0.67 4.69 -0.34 2.38 0 0 Z " fill="#319BE1" transform="translate(396,383)"/>
<path d="M0 0 C0.99 0 1.98 0 3 0 C1.63016497 3.16115776 1.0109362 3.9927092 -2 6 C-1.125 1.125 -1.125 1.125 0 0 Z " fill="#2E8ECC" transform="translate(674,246)"/>
</svg>
