<?xml version="1.0" encoding="UTF-8"?>
<svg version="1.1" xmlns="http://www.w3.org/2000/svg" width="256" height="256">
<path d="M0 0 C3.72574284 0.00850349 7.44994503 -0.020323 11.17553711 -0.05200195 C42.12552434 -0.14443076 66.53321072 7.46124849 88.93139648 29.44604492 C89.67905273 30.16920898 90.42670898 30.89237305 91.19702148 31.63745117 C105.68226543 46.60384833 115.67878853 68.63064798 116.93139648 89.44604492 C116.99584961 90.51467773 117.06030273 91.58331055 117.12670898 92.68432617 C117.16538086 93.84319336 117.20405273 95.00206055 117.24389648 96.19604492 C117.2999707 97.82799805 117.2999707 97.82799805 117.35717773 99.49291992 C116.93139648 102.44604492 116.93139648 102.44604492 115.45042419 104.59886932 C111.85579052 107.23477506 108.48976199 106.99987114 104.20117188 106.95397949 C103.31036202 106.96021945 102.41955217 106.96645942 101.50174809 106.97288847 C98.51058205 106.98886979 95.52022512 106.97619406 92.52905273 106.96362305 C90.38719201 106.96904187 88.24533502 106.97616318 86.10348511 106.98486328 C80.28123241 107.00312792 74.45926262 106.99601604 68.63700485 106.98334694 C62.55031306 106.97323558 56.46364585 106.98260743 50.37695312 106.9888916 C40.15449667 106.99617343 29.93215572 106.98656619 19.7097168 106.9675293 C7.88308359 106.94575962 -3.9432738 106.95281061 -15.76990032 106.97483492 C-25.91520649 106.99297359 -36.06042951 106.99555472 -46.20574665 106.98508024 C-52.26895482 106.97883691 -58.33203326 106.97803282 -64.39523315 106.9912262 C-70.09489763 107.00276171 -75.79420575 106.9948008 -81.49383163 106.97164917 C-83.58847333 106.96634981 -85.68314491 106.96789672 -87.77777481 106.97669983 C-90.63171752 106.98759032 -93.48450999 106.97397033 -96.33837891 106.95397949 C-97.17222579 106.96290238 -98.00607267 106.97182527 -98.86518764 106.98101854 C-102.49019795 106.9315826 -104.62905 106.77200064 -107.58323669 104.5812912 C-111.49669203 98.95561624 -109.26602253 89.95350128 -108.2421875 83.57983398 C-103.62972599 57.91970327 -90.76172017 34.32336368 -69.31860352 18.82104492 C-46.81606284 3.87822749 -26.73558092 -0.09292319 0 0 Z M-70.13110352 40.37573242 C-80.23426075 51.27404555 -87.62473564 64.89842143 -90.81860352 79.32104492 C-91.0390332 80.26979492 -91.25946289 81.21854492 -91.48657227 82.19604492 C-92.63145145 86.7762783 -92.63145145 86.7762783 -93.06860352 91.44604492 C-29.04860352 91.44604492 34.97139648 91.44604492 100.93139648 91.44604492 C96.19619321 66.19162744 87.4354008 45.68620403 65.93139648 30.44604492 C26.91248074 4.78913599 -35.84785142 8.30011399 -70.13110352 40.37573242 Z " fill="#0B4A64" transform="translate(124.068603515625,149.553955078125)"/>
<path d="M0 0 C1.04510742 0.00572021 2.09021484 0.01144043 3.16699219 0.01733398 C21.77801387 0.44265512 37.30908421 8.18855067 50.3125 21.5 C62.82675426 34.69561111 68.89457332 51.91300468 68.73022461 69.98730469 C68.02610937 89.70253135 59.44111925 106.06007268 45.3125 119.5 C33.18201818 130.65337032 16.87746814 136.10452173 0.625 136 C-0.94266113 135.99141968 -0.94266113 135.99141968 -2.54199219 135.98266602 C-21.15301387 135.55734488 -36.68408421 127.81144933 -49.6875 114.5 C-62.20175426 101.30438889 -68.26957332 84.08699532 -68.10522461 66.01269531 C-67.40110937 46.29746865 -58.81611925 29.93992732 -44.6875 16.5 C-32.55701818 5.34662968 -16.25246814 -0.10452173 0 0 Z M-41.6875 36.5 C-50.31784637 47.68492889 -53.00680799 61.65925987 -51.6875 75.5 C-50.74030743 80.0102071 -49.36820177 84.21333207 -47.6875 88.5 C-47.41035156 89.23734375 -47.13320312 89.9746875 -46.84765625 90.734375 C-41.82740526 102.30177359 -30.69474295 111.56733782 -19.3125 116.375 C-7.67947578 120.91398361 6.65009522 121.79395499 18.5625 117.4375 C32.78748805 110.83502836 44.01781264 100.58513132 49.5625 85.8125 C54.16135248 72.78870057 53.3056883 60.23523983 48.3125 47.5 C48.03535156 46.76265625 47.75820312 46.0253125 47.47265625 45.265625 C42.45240526 33.69822641 31.31974295 24.43266218 19.9375 19.625 C-3.02001688 10.66741589 -25.85964158 18.15809696 -41.6875 36.5 Z " fill="#0B4A63" transform="translate(127.6875,-0.5)"/>
</svg>
