<?xml version="1.0" encoding="UTF-8"?>
<svg version="1.1" xmlns="http://www.w3.org/2000/svg" width="100" height="100">
<path d="M0 0 C21.70396665 -3.1823998 21.70396665 -3.1823998 28.54101562 1.88232422 C32.82625438 6.62918422 35.87900268 12.03920347 38.77636719 17.71240234 C40.22317382 20.4172264 41.96504963 22.70947529 44 25 C49.9292017 18.60042322 55.63530235 12.12325224 61.08984375 5.3125 C65.40790501 0.08490846 65.40790501 0.08490846 68.04296875 -0.29296875 C70.02864583 -0.1953125 72.01432292 -0.09765625 74 0 C70.67626411 4.7153814 67.09654733 9.06804299 63.1875 13.3125 C59.66485877 17.14517642 56.21993482 21.01241629 52.875 25 C52.12992188 25.886875 51.38484375 26.77375 50.6171875 27.6875 C48.71345467 29.93943428 48.71345467 29.93943428 49 33 C50.3313918 35.43069286 50.3313918 35.43069286 52.1484375 38.05078125 C52.81987793 39.05326904 53.49131836 40.05575684 54.18310547 41.08862305 C54.90643066 42.15250244 55.62975586 43.21638184 56.375 44.3125 C57.10219238 45.39378174 57.82938477 46.47506348 58.57861328 47.58911133 C63.3079971 54.59407208 68.14282316 61.50600748 73.1796875 68.29296875 C74.88702538 70.83199267 75.91893596 73.15677179 77 76 C54.88320129 77.7808008 54.88320129 77.7808008 48.9453125 74.11328125 C46.90802475 71.18850549 45.50309878 68.23274115 44 65 C42.09085704 62.0395151 40.04098984 59.1830617 38 56.3125 C37.03853194 54.91491178 36.07993375 53.51534231 35.125 52.11328125 C34.42375 51.08589844 33.7225 50.05851562 33 49 C25.97504089 56.43755331 19.08838457 63.88729505 12.70703125 71.890625 C11 74 11 74 9 76 C6.31160615 76.26991906 3.70858064 76.08737357 1 76 C4.87713886 70.55680114 9.11231928 65.59243527 13.62109375 60.6640625 C16.89660961 56.99591502 19.97642205 53.18169654 23.0546875 49.34765625 C25 47 25 47 26.8203125 45.43359375 C27.20960937 44.96050781 27.59890625 44.48742188 28 44 C27.30851479 39.62361158 24.75950132 36.47104817 22.25 32.9375 C21.25483256 31.51328333 20.26005839 30.0887918 19.265625 28.6640625 C18.73775391 27.91157227 18.20988281 27.15908203 17.66601562 26.38378906 C14.75031801 22.21191457 11.87582828 18.01190912 9 13.8125 C8.44860352 13.01126709 7.89720703 12.21003418 7.32910156 11.38452148 C6.80799805 10.62469971 6.28689453 9.86487793 5.75 9.08203125 C5.29109375 8.41405518 4.8321875 7.7460791 4.359375 7.05786133 C2.83257045 4.74654029 1.41033759 2.38383349 0 0 Z M10 4 C11.24467231 7.36834634 12.64280466 10.17201382 14.73046875 13.08984375 C15.27840088 13.86271729 15.82633301 14.63559082 16.39086914 15.43188477 C16.98375732 16.25873779 17.57664551 17.08559082 18.1875 17.9375 C19.46214185 19.73612628 20.73553628 21.53563709 22.0078125 23.3359375 C22.6668457 24.26760742 23.32587891 25.19927734 24.00488281 26.15917969 C27.23738988 30.76190267 30.40138331 35.41057795 33.5625 40.0625 C34.1797998 40.96959717 34.79709961 41.87669434 35.43310547 42.8112793 C37.92128331 46.4685813 40.40731681 50.1273367 42.89257812 53.78662109 C44.69728592 56.44240199 46.50467633 59.09633953 48.3125 61.75 C48.857854 62.55445557 49.40320801 63.35891113 49.96508789 64.18774414 C50.4677417 64.92500732 50.97039551 65.66227051 51.48828125 66.421875 C51.92696533 67.06737305 52.36564941 67.71287109 52.81762695 68.37792969 C54.04112054 70.14438301 54.04112054 70.14438301 56 72 C58.89883083 72.24339551 58.89883083 72.24339551 62.125 72.125 C63.22070312 72.10695313 64.31640625 72.08890625 65.4453125 72.0703125 C66.28835937 72.04710938 67.13140625 72.02390625 68 72 C66.62951681 68.13080755 64.84813597 65.20381304 62.375 61.9375 C57.31188884 55.1196644 52.66716761 48.05284453 48 40.9609375 C44.09406876 35.05626801 40.06595328 29.27673385 35.87451172 23.57128906 C33.19221003 19.89194531 30.62233159 16.14010081 28.0625 12.375 C25.27645117 7.98390024 25.27645117 7.98390024 22 4 C19.98035801 3.92755947 17.95832876 3.91622812 15.9375 3.9375 C14.83277344 3.94652344 13.72804688 3.95554687 12.58984375 3.96484375 C11.73519531 3.97644531 10.88054688 3.98804688 10 4 Z " fill="#FFFFFF" transform="translate(11,12)"/>
</svg>
