<?xml version="1.0" encoding="UTF-8"?>
<svg version="1.1" xmlns="http://www.w3.org/2000/svg" width="100" height="100">
<path d="M0 0 C2.93990642 0.01073404 5.8792037 0.00004526 8.8190918 -0.01269531 C34.39285978 -0.03540472 34.39285978 -0.03540472 41.87963867 5.26074219 C44.47782091 10.05333511 45.54356615 14.65718994 46.12963867 20.07324219 C46.21117188 20.80099854 46.29270508 21.52875488 46.37670898 22.27856445 C47.18879994 30.65615919 46.73366407 38.90514236 45.87963867 47.26074219 C45.77780273 48.31003906 45.6759668 49.35933594 45.57104492 50.44042969 C44.9666277 54.64019471 44.1916464 56.85597541 41.56713867 60.26074219 C32.2403747 66.56670306 16.48689699 64.56807556 5.75927734 64.52148438 C2.81937092 64.51075034 -0.11992635 64.52143911 -3.05981445 64.53417969 C-28.36657666 64.556652 -28.36657666 64.556652 -36.12036133 59.26074219 C-41.55167518 52.08364889 -40.30659531 42.71215097 -40.30566406 34.1484375 C-40.30784824 31.89922083 -40.32603118 29.65049718 -40.3449707 27.40136719 C-40.34790592 25.95084801 -40.34988986 24.50032653 -40.35083008 23.04980469 C-40.35493896 21.74736816 -40.35904785 20.44493164 -40.36328125 19.10302734 C-40.01200245 13.54682057 -39.38344416 8.83106138 -35.80786133 4.38574219 C-26.6366718 -2.11559412 -10.68075283 -0.04638763 0 0 Z M-8.12036133 19.26074219 C-8.12036133 27.84074219 -8.12036133 36.42074219 -8.12036133 45.26074219 C-0.53766984 41.54230694 6.82501489 37.91679388 13.87963867 33.26074219 C12.65197119 29.57773975 11.77264036 29.35569483 8.44213867 27.56152344 C7.5475293 27.07490234 6.65291992 26.58828125 5.73120117 26.08691406 C4.79018555 25.58740234 3.84916992 25.08789062 2.87963867 24.57324219 C1.93862305 24.06212891 0.99760742 23.55101562 0.02807617 23.02441406 C-3.85210214 20.51690157 -3.85210214 20.51690157 -8.12036133 19.26074219 Z " fill="#FFFFFF" transform="translate(46.120361328125,17.7392578125)"/>
</svg>
